<?xml version="1.0" standalone="no"?>
<!DOCTYPE svg PUBLIC "-//W3C//DTD SVG 1.1//EN" "http://www.w3.org/Graphics/SVG/1.1/DTD/svg11.dtd" >
<!--
2013-9-30: Created.
-->
<svg>
<metadata>
Created by iconfont
</metadata>
<defs>

<font id="iconfont" horiz-adv-x="1024" >
  <font-face
    font-family="iconfont"
    font-weight="500"
    font-stretch="normal"
    units-per-em="1024"
    ascent="896"
    descent="-128"
  />
    <missing-glyph />
    
    <glyph glyph-name="x" unicode="x" horiz-adv-x="1001"
d="M281 543q-27 -1 -53 -1h-83q-18 0 -36.5 -6t-32.5 -18.5t-23 -32t-9 -45.5v-76h912v41q0 16 -0.5 30t-0.5 18q0 13 -5 29t-17 29.5t-31.5 22.5t-49.5 9h-133v-97h-438v97zM955 310v-52q0 -23 0.5 -52t0.5 -58t-10.5 -47.5t-26 -30t-33 -16t-31.5 -4.5q-14 -1 -29.5 -0.5
t-29.5 0.5h-32l-45 128h-439l-44 -128h-29h-34q-20 0 -45 1q-25 0 -41 9.5t-25.5 23t-13.5 29.5t-4 30v167h911zM163 247q-12 0 -21 -8.5t-9 -21.5t9 -21.5t21 -8.5q13 0 22 8.5t9 21.5t-9 21.5t-22 8.5zM316 123q-8 -26 -14 -48q-5 -19 -10.5 -37t-7.5 -25t-3 -15t1 -14.5
t9.5 -10.5t21.5 -4h37h67h81h80h64h36q23 0 34 12t2 38q-5 13 -9.5 30.5t-9.5 34.5q-5 19 -11 39h-368zM336 498v228q0 11 2.5 23t10 21.5t20.5 15.5t34 6h188q31 0 51.5 -14.5t20.5 -52.5v-227h-327z" />
    

    
    <glyph glyph-name="jiantou" unicode="&#58907;" d="M418.55488-71.887104c-5.241856 0-10.481664 1.998848-14.481408 5.998592-7.998464 7.99744-7.998464 20.965376 0 28.962816L740.652032 299.652864 404.073472 636.232448c-7.998464 7.998464-7.998464 20.965376 0 28.962816s20.965376 7.998464 28.962816 0l351.060992-351.060992c3.84-3.84 5.997568-9.050112 5.997568-14.481408s-2.157568-10.641408-5.998592-14.481408L433.036288-65.889536C429.037568-69.887232 423.794688-71.887104 418.55488-71.887104z"  horiz-adv-x="1024" />

    
    <glyph glyph-name="xiangyou" unicode="&#58953;" d="M283.363556-212 241.777778-169.333333 699.079111 300 241.777778 769.333333 283.363556 812 782.222222 300 283.363556-212z"  horiz-adv-x="1024" />

    
    <glyph glyph-name="yifahuo" unicode="&#59573;" d="M811.456 577.888l36.864 0c2.688 0 9.792-3.392 11.52-5.632l161.92-203.392c1.024-1.216 3.264-7.552 3.264-9.216l0-248.448c0-12.672-5.184-24.256-13.568-32.704-8.448-8.384-19.968-13.568-32.768-13.568l-56.128 0c-6.912-57.28-54.144-101.44-111.104-105.344l0 29.696c46.016 4.16 82.432 43.264 82.432 90.304 0 47.168-36.352 86.016-82.432 90.176L811.456 199.648c56.896-3.968 103.936-47.936 111.04-104.96l56.192 0c4.672 0 8.832 1.792 11.84 4.8 2.944 3.072 4.864 7.168 4.864 11.84L995.392 291.296l-183.936 0L811.456 320.928l183.936 0L995.392 354.656l-82.24 103.424-101.696 0L811.456 487.648l78.08 0-48.384 60.672-29.696 0L811.456 577.888 811.456 577.888zM333.312 733.216c18.368-10.24 35.136-22.976 49.856-37.696l0 0C390.4 688.288 397.056 680.672 403.264 672.608l164.736 0c16.32 0 31.296-6.72 41.984-17.408l0-0.064c10.88-10.816 17.472-25.6 17.472-41.984l0-35.2 184 0 0-29.632L627.456 548.32l0-453.632 56.576 0c7.424 59.712 58.816 105.216 119.296 105.216 2.688 0 5.312-0.064 8.128-0.192l0-29.824c-2.752 0.32-5.44 0.512-8.128 0.512-49.728 0-90.624-40.896-90.624-90.624 0-49.856 40.768-90.624 90.624-90.624 2.688 0 5.376 0.064 8.128 0.384l0-29.76c-2.816-0.128-5.44-0.256-8.128-0.256-60.48 0-112.064 45.824-119.424 105.536L384.128 65.056c-4.288-34.944-23.488-65.024-50.816-84.032l0 39.488c13.696 15.872 22.08 36.544 22.08 59.2 0 22.528-8.32 43.2-22.08 59.136L333.312 178.272C360.512 159.328 379.712 129.44 384 94.688l213.76 0 0 518.4c0 8.256-3.392 15.68-8.832 21.12l0-0.064C583.616 639.648 576.128 642.912 568 642.912L422.4 642.912C439.36 611.296 449.088 575.136 449.088 536.8c0-61.824-25.216-118.016-65.856-158.656-14.72-14.784-31.552-27.52-49.856-37.76L333.376 375.2c10.368 7.04 20.096 14.976 28.928 23.936C397.568 434.4 419.456 483.168 419.456 536.8c0 53.696-21.824 102.4-57.216 137.728L362.24 674.656c-8.832 8.832-18.56 16.832-28.928 23.936L333.312 733.216 333.312 733.216 333.312 733.216zM811.456 487.584l-34.816 0c-26.176 0-47.68-21.504-47.68-47.68l0-101.312c0-25.856 21.44-47.296 47.168-47.296l35.328 0L811.456 320.928l-35.328 0c-9.472 0-17.536 7.936-17.536 17.6L758.592 439.904c0 9.856 8.32 18.112 18.112 18.112l34.752 0L811.456 487.584 811.456 487.584zM224.576 761.376c39.36 0 76.48-10.24 108.736-28.224l0-34.624c-31.104 20.928-68.48 33.216-108.736 33.216-12.16 0-24.128-1.088-35.712-3.264l0 30.08C200.512 760.416 212.416 761.376 224.576 761.376L224.576 761.376 224.576 761.376zM333.312-18.976c-19.584-13.632-43.2-21.632-68.544-21.632-28.608 0-55.04 10.112-75.84 27.136l0 43.776c16.192-24.832 44.16-41.28 75.84-41.28 27.328 0 51.904 12.16 68.544 31.488L333.312-18.976 333.312-18.976zM333.312 375.2l0-34.688c-32.256-17.984-69.312-28.16-108.736-28.16-12.16 0-24.064 0.96-35.712 2.816l0 30.08c11.52-2.176 23.488-3.328 35.712-3.328C264.768 341.92 302.208 354.272 333.312 375.2L333.312 375.2 333.312 375.2zM333.312 178.272l0-39.488c-16.64 19.328-41.216 31.552-68.544 31.552-31.616 0-59.648-16.576-75.84-41.408L188.928 172.704c20.8 17.024 47.296 27.136 75.84 27.136C290.112 199.84 313.728 191.84 333.312 178.272L333.312 178.272 333.312 178.272zM188.928 487.584 188.928 526.304l20.8 17.472L209.728 671.712c0 21.184 29.632 21.184 29.632 0l0-134.848c0-2.624-3.2-9.6-5.248-11.392L188.928 487.584 188.928 487.584zM188.928-13.472c-23.424 19.136-39.552 46.784-43.456 78.528L98.688 65.056c-32.704 0-59.456 26.88-59.456 59.584L39.232 410.4C14.528 446.432 0 490.016 0 536.864c0 61.824 25.216 118.016 65.856 158.72C98.56 728.16 141.312 750.944 188.928 758.624l0-30.144C149.44 721.184 114.112 701.856 86.784 674.592 51.52 639.264 29.632 590.496 29.632 536.864s21.824-102.4 57.216-137.664L86.72 399.2c27.328-27.328 62.656-46.592 102.144-53.888l0-30.016C142.656 322.592 101.12 344.224 68.8 375.456l0-250.88c0-16.448 13.376-29.888 29.824-29.888l46.848 0c3.968 31.488 20.096 59.072 43.392 78.08l0-43.904c-9.344-14.144-14.72-31.04-14.72-49.216 0-18.24 5.376-35.264 14.72-49.408L188.928-13.472 188.928-13.472 188.928-13.472zM188.928 526.304 165.504 506.656 144.576 489.056C128.448 475.488 147.648 452.832 163.712 466.4l25.216 21.184L188.928 526.304 188.928 526.304zM188.928 526.304"  horiz-adv-x="1026" />

    
    <glyph glyph-name="yyg_me" unicode="&#58883;" d="M308.442 606.075c88.13 93.177 258.372 85.606 335.438-18.053 89.295-105.407 50.859-290.402-79.395-343.202 117.83-43.871 231.778-133.554 254.49-264.002-39.406-0.971-44.647 38.047-59.595 64.836-61.342 118.607-202.078 188.295-333.691 170.436-126.954-15.335-239.155-110.26-276.037-232.555-8.347 1.747-24.653 5.047-33 6.6 32.418 124.819 138.213 210.619 253.908 255.655-138.989 55.324-167.525 260.119-62.118 360.285M417.731 631.699c-123.654-31.447-184.995-195.866-104.048-297.584 78.812-118.413 280.502-96.089 329.808 37.853 71.63 137.242-81.918 307.485-225.76 259.731z"  horiz-adv-x="1024" />

    
    <glyph glyph-name="dizhi1" unicode="&#58913;" d="M1024 33.125209C1024-72.656372 766.428279-128 512-128 257.571721-128 0-72.656372 0 33.125209 0 126.999814 198.394047 166.12614 283.719442 178.604651 296.364651 180.390698 308.152558 171.460465 309.962419 158.553302 311.796093 145.622326 302.98493 133.643907 290.292093 131.786419 112.616186 105.829209 46.413395 57.486884 46.413395 33.125209 46.413395-13.288186 227.780465-80.729302 512-80.729302 796.219535-80.729302 977.586605-13.288186 977.586605 33.125209 977.586605 57.677395 910.740837 106.281674 731.350326 132.119814 718.657488 133.953488 709.822512 145.931907 711.608558 158.83907 713.418419 171.770047 725.206326 180.676465 737.827721 178.938047 823.867535 166.530977 1024 127.523721 1024 33.125209L1024 33.125209ZM413.81507 594.753488C413.81507 649.906605 457.84707 694.772093 511.976186 694.772093 566.129116 694.772093 610.18493 649.906605 610.18493 594.753488 610.18493 539.600372 566.129116 494.71107 511.976186 494.71107 457.84707 494.71107 413.81507 539.600372 413.81507 594.753488L413.81507 594.753488ZM656.598326 594.753488C656.598326 675.982884 591.729116 742.066605 511.976186 742.066605 432.270884 742.066605 367.425488 675.982884 367.425488 594.753488 367.425488 513.524093 432.270884 447.440372 511.976186 447.440372 591.729116 447.440372 656.598326 513.524093 656.598326 594.753488L656.598326 594.753488ZM512 848.729302C654.764651 848.729302 770.929116 730.373953 770.929116 584.894512 770.929116 383.333209 570.391814 156.862512 511.809488 95.017674 453.060465 155.743256 253.070884 377.713116 253.070884 584.894512 253.070884 730.373953 369.211535 848.729302 512 848.729302L512 848.729302ZM496.139907 44.365395 512.190512 29.100651 528.050605 44.555907C539.862326 56.08186 817.342512 329.799442 817.342512 584.894512 817.342512 756.450233 680.364651 896 512 896 343.635349 896 206.657488 756.450233 206.657488 584.894512 206.657488 322.917209 484.328186 55.605581 496.139907 44.341581L496.139907 44.365395Z"  horiz-adv-x="1024" />

    
    <glyph glyph-name="dingdan1" unicode="&#58991;" d="M758.087111-58.958222 265.912889-58.958222c-81.415111 0-147.648 66.232889-147.648 147.648L118.264889 679.303111c0 81.422222 66.232889 147.655111 147.648 147.655111l24.611556 0c13.603556 0 24.604444-11.015111 24.604444-24.611556 0-13.589333-11.008-24.604444-24.604444-24.604444l-24.611556 0c-54.279111 0-98.432-44.16-98.432-98.439111l0-590.606222c0-54.279111 44.138667-98.432 98.432-98.432l492.174222 0c54.279111 0 98.432 44.138667 98.432 98.432L856.519111 679.303111c0 54.279111-44.138667 98.439111-98.432 98.439111l-24.611556 0c-13.603556 0-24.604444 11.015111-24.604444 24.611556 0 13.589333 11.008 24.604444 24.604444 24.604444l24.611556 0c81.415111 0 147.648-66.232889 147.648-147.648l0-590.606222C905.735111 7.274667 839.502222-58.958222 758.087111-58.958222L758.087111-58.958222zM758.087111-58.958222M628.885333 777.735111 395.107556 777.735111c-13.603556 0-24.611556 11.015111-24.611556 24.604444 0 13.589333 11.008 24.611556 24.611556 24.611556l233.777778 0c13.603556 0 24.611556-11.015111 24.611556-24.611556C653.504 788.750222 642.488889 777.735111 628.885333 777.735111L628.885333 777.735111zM628.885333 777.735111M761.159111 520.369778 262.840889 520.369778c-13.610667 0-24.611556 11.015111-24.611556 24.604444 0 13.589333 11.008 24.611556 24.611556 24.611556l498.318222 0c13.603556 0 24.611556-11.015111 24.611556-24.611556C785.770667 531.384889 774.762667 520.369778 761.159111 520.369778L761.159111 520.369778zM761.159111 520.369778M761.159111 359.388444 262.840889 359.388444c-13.610667 0-24.611556 11.015111-24.611556 24.604444 0 13.589333 11.008 24.611556 24.611556 24.611556l498.318222 0c13.603556 0 24.611556-11.015111 24.611556-24.611556C785.770667 370.403556 774.762667 359.388444 761.159111 359.388444L761.159111 359.388444zM761.159111 359.388444M761.159111 198.4 262.840889 198.4c-13.610667 0-24.611556 11.008-24.611556 24.611556 0 13.603556 11.008 24.604444 24.611556 24.604444l498.318222 0c13.603556 0 24.611556-11.008 24.611556-24.604444C785.770667 209.408 774.762667 198.4 761.159111 198.4L761.159111 198.4zM761.159111 198.4"  horiz-adv-x="1024" />

    
    <glyph glyph-name="liwu" unicode="&#59086;" d="M435.760235 632.567777 16.08443 632.567777 16.08443 475.432533 435.760235 475.432533 435.760235 632.567777 435.760235 632.567777ZM750.307252 886.655472C802.661808 911.48284 874.58375 884.612713 899.449542 832.339055 924.315333 780.065398 902.020056 705.949935 840.380171 676.460892 788.130534 651.476388 583.32874 606.430948 558.462949 658.704606 533.544698 710.873508 697.952696 861.828105 750.307252 886.655472L750.307252 886.655472 750.307252 886.655472ZM817.875057 735.38661C844.052335 747.800291 855.173743 776.713177 842.740848 802.850006 830.307953 828.986835 798.989645 830.767703 772.864826 818.354017 746.687548 805.940336 640.771867 729.729739 653.204762 703.59291 665.637657 677.456081 791.697778 722.972923 817.875057 735.38661L817.875057 735.38661 817.875057 735.38661ZM435.760235 423.054117 68.543908 423.054117 68.543908-100.730037 435.760235-100.730037 435.760235 423.054117 435.760235 423.054117ZM1012.814468 632.567777 593.138663 632.567777 593.138663 475.432533 1012.814468 475.432533 1012.814468 632.567777 1012.814468 632.567777ZM960.354993 423.054117 593.138663 423.054117 593.138663-100.730037 960.354993-100.730037 960.354993 423.054117 960.354993 423.054117ZM129.396896 832.339055C154.262688 884.612713 226.184628 911.48284 278.539188 886.655472 330.893747 861.828105 495.301741 710.925888 470.435949 658.652231 445.570158 606.378573 240.768364 651.424008 188.466269 676.408511 126.826385 705.897561 104.531104 780.065398 129.396896 832.339055L129.396896 832.339055 129.396896 832.339055ZM211.023839 735.38661C237.201121 722.972923 363.261243 677.456081 375.746597 703.59291 388.127034 729.729739 282.211348 805.940336 256.08653 818.354017 229.909254 830.767703 198.590943 828.986835 186.210506 802.850006 173.725157 776.713177 184.846562 747.800291 211.023839 735.38661L211.023839 735.38661 211.023839 735.38661Z"  horiz-adv-x="1024" />

    
    <glyph glyph-name="shiliangzhinengduixiang" unicode="&#58882;" d="M121.44 790.304c-23.648 0-43.2 16.64-43.2 37.344 0 20.448 19.52 37.44 43.2 37.44l790.176 0c23.328 0 43.168-16.992 43.168-37.44 0-20.704-19.808-37.344-43.168-37.344L876.16 790.304c-5.248-121.44-35.232-212.128-79.488-279.36l-0.768-1.568c-45.376-67.456-104.512-110.4-168.288-138.048 63.776-27.264 122.912-71.072 168.288-138.048l0.768-1.536c42.944-64.864 72.352-150.496 78.976-264.192l36 0c23.328 0 43.168-16.736 43.168-37.664 0-20.48-19.808-37.44-43.168-37.44L121.44-107.552c-23.648 0-43.2 16.96-43.2 37.44 0 20.928 19.52 37.664 43.2 37.664l35.968 0c6.88 113.696 36.064 199.328 79.52 264.192l0.544 1.536c45.088 67.008 104.16 110.784 167.68 138.048-63.52 27.648-122.592 70.624-167.68 138.048l-0.544 1.568c-45.408 67.232-75.36 157.92-80.064 279.36L121.44 790.304 121.44 790.304zM818.4-32.48 818.4-32.48c-25.28 78.368-79.2 134.112-145.152 167.488-47.296 24.16-102.304 36.384-156.992 36.384-54.72 0-109.152-12.192-156.96-36.384-66.016-33.376-119.328-89.152-144.896-167.488L818.4-32.48 818.4-32.48zM229.472 93.632 229.472 93.632c29.44 33.76 64.352 60.064 103.68 80.16 55.776 28.096 119.552 42.464 183.104 42.464 63.488 0 127.328-14.368 183.648-42.464 38.752-20.096 74.528-46.656 103.968-80.384-12.672 45.696-30.272 83.84-51.712 115.936l-0.544 1.056c-51.712 77.504-126.176 119.552-200.736 139.744l-3.296 0.704-0.576 0.352c-1.376 0.48-2.752 1.568-4.672 2.624l-0.544 0.512-1.408 1.056-0.8 0.256-1.408 1.312 0 0.608c-1.344 1.568-2.464 2.656-3.264 3.936l0 0.512c-1.12 1.664-1.952 3.456-1.952 5.376l-0.608 0.832 0 1.184 0 1.408 0 0.96 0 1.696 0 0.736 0.608 1.088c0 1.92 0.8 4.064 1.952 5.376L534.912 381.12c0.768 1.344 1.92 2.4 3.264 3.488l0 1.088 1.408 1.312 0.8 0.256 1.408 1.312 0.544 0.608c1.92 0.704 3.296 1.312 4.672 2.368l0.576 0 3.296 1.088c74.56 20.096 149.024 61.504 200.736 139.616l0.544 1.088c40.416 61.024 67.616 144.416 72.832 256.992L208.864 790.336c3.84-112.576 31.328-195.968 71.744-256.992l0.832-1.088c52.512-78.112 126.144-119.52 200.96-139.616l3.296-1.088 0.576 0c1.376-1.088 2.752-1.664 4.16-2.368l0.544-0.608 2.176-1.312 0-0.256 1.664-1.312 0.768-1.088c0.608-1.088 1.408-2.144 2.24-3.488l0-0.48c1.088-1.312 1.92-3.456 2.432-5.376l0-1.088 0-0.736 0-1.696 0-0.96 0-1.408 0-1.184 0-0.832c-0.544-1.92-1.344-3.712-2.432-5.376l0-0.512c-0.832-1.312-1.664-2.848-2.24-3.936l-0.768-0.608-1.664-1.312 0-0.256-2.176-1.056-0.544-0.512c-1.408-1.056-2.784-2.144-4.16-2.624l-0.576-0.352-3.296-0.704c-74.816-20.192-148.48-62.208-200.96-139.744L280.64 209.344C259.424 177.248 241.568 139.104 229.472 93.632L229.472 93.632zM291.616 600.672 291.616 600.672c18.368-41.152 44.8-78.848 80.8-109.344 32.704-27.68 72.608-49.408 122.368-63.2l0.768 0 0.608 0 6.88-2.176 1.664-0.8c1.344-0.48 3.008-0.736 4.096-1.344l1.408-0.48c6.528-1.568 13.472-0.608 18.976 2.144l0.544 0.224 7.168 2.4 1.344 0 0 0c49.504 13.76 89.664 35.52 122.656 63.2l0 0c35.712 30.464 61.856 68.16 80.544 109.344 5.248 11.744-1.632 24.416-14.848 29.184-13.152 4.768-28.064-1.312-32.96-12.672-15.68-35.52-38.176-67.968-68.736-94.016-26.944-22.848-60.48-40.576-101.152-51.84l-0.832 0-0.544-0.224-3.328-0.96-2.24-0.608-3.008 0.608-2.144 0.704-1.376 0.48c-41.824 11.264-75.104 28.96-102.272 51.84-29.408 26.048-52.256 58.496-67.936 94.016-5.504 11.36-20.384 17.472-33.568 12.672C293.28 625.088 286.656 612.416 291.616 600.672L291.616 600.672zM520.928 470.848 520.928 470.848l1.376 0.256L520.928 470.848 520.928 470.848z"  horiz-adv-x="1024" />

    
    <glyph glyph-name="huobanxiaozu-copy" unicode="&#58880;" d="M174.913 294.782c68.14 0 123.436 55.245 123.436 123.433 0 68.219-55.296 123.464-123.436 123.464-68.253 0-123.511-55.245-123.511-123.464 0-68.188 55.262-123.433 123.511-123.433zM174.913 257.379c-96.556 0-174.913-78.281-174.913-174.879v-150.043h349.676v150.043c0 96.597-78.203 174.879-174.763 174.879zM849.162 294.782c68.178 0 123.511 55.245 123.511 123.433 0 68.219-55.334 123.464-123.511 123.464-68.127 0-123.423-55.245-123.423-123.464 0-68.188 55.296-123.433 123.423-123.433zM849.162 257.379c-96.597 0-174.875-78.278-174.875-174.879v-150.043l349.713-0v150.043c0 96.597-78.24 174.879-174.838 174.879zM512.058 596.64c68.137 0 123.433 55.296 123.433 123.395 0 68.202-55.296 123.498-123.433 123.498-68.219 0-123.436-55.296-123.436-123.498-0-68.096 55.221-123.395 123.436-123.395zM686.858 384.348c0 96.635-78.203 174.916-174.797 174.916-96.56 0-174.879-78.281-174.879-174.916v-150.081h349.676v150.081z"  horiz-adv-x="1024" />

    
    <glyph glyph-name="tuiguangfei1" unicode="&#58936;" d="M1123.151 283.614c-20.166-54.734-43.698-69.936-50.418-69.936-10.091 0-30.257 15.202-50.423 69.936-10.080 24.324-16.812 51.689-20.172 79.053 26.891 3.039 50.423 15.202 70.595 39.527 20.166 24.324 30.251 54.728 30.251 85.137 0 33.442-10.086 63.851-30.251 85.132-16.812 21.285-43.702 36.487-70.595 39.527 6.726 30.409 13.451 54.734 20.172 79.053 20.166 54.734 43.698 69.936 50.423 69.936 10.080 0 30.251-15.202 50.418-69.936 20.166-54.728 30.251-127.698 30.251-203.712 0-76.014-10.086-148.988-30.251-203.717v0 0zM460.968 344.426c-16.806 33.443-26.891 88.171-26.891 142.905 0 54.728 10.086 109.457 26.891 142.905 178.149 24.324 336.131 66.891 457.143 97.294 23.526 6.083 43.698 12.162 63.863 18.246-6.72-12.162-10.086-24.324-16.806-36.487-20.172-57.773-33.611-136.826-33.611-218.918 0-82.092 13.44-161.151 33.611-218.918 6.72-15.202 10.086-27.364 16.806-36.487-20.166 6.083-40.338 12.158-63.863 18.241-121.012 27.364-278.993 69.936-457.143 91.221v0 0zM545.003-23.482c3.36-6.083 3.36-9.123 0-9.123 0 0-3.366-3.039-10.086-3.039h-73.948c-16.806 0-36.978 15.207-40.338 30.409l-87.394 313.174c20.166 0 36.971-3.039 53.782-6.083l157.983-325.336zM158.448 487.331c0 76.014 33.611 124.658 53.777 124.658 63.868 0 124.372 3.045 184.874 9.123-13.446-36.487-20.166-85.137-20.166-133.782 0-51.689 6.72-97.299 20.166-133.787-57.143 6.083-121.006 9.123-181.508 9.123-23.532 0-57.143 48.65-57.143 124.664v0 0zM988.7 487.331c0 24.324 0 51.689 3.366 76.014 26.886-3.044 50.411-36.487 50.411-76.014 0-39.527-23.526-72.975-50.411-76.014-3.366 27.364-3.366 51.689-3.366 76.014v0 0zM1173.569 709.289c-30.251 88.177-73.948 103.378-104.195 103.378h-3.366c-30.251 0-84.034-15.202-164.703-36.487-168.068-45.611-426.892-112.501-685.714-112.501-63.868 0-110.926-76.014-110.926-176.348 0-100.339 47.058-176.352 110.926-176.352h60.503l90.754-331.416c10.086-36.487 53.782-66.896 94.12-66.896h73.948c23.532 0 43.698 9.123 57.143 24.32 10.086 15.207 13.446 36.492 3.36 54.734l-141.177 301.016c174.789-24.324 332.777-63.857 450.423-97.305 80.669-21.28 134.452-36.483 164.708-36.483h3.36c30.251 0 73.948 18.241 104.195 103.378 20.172 57.773 33.617 136.826 33.617 218.918 0 82.098-13.446 167.229-36.977 228.042v0 0z"  horiz-adv-x="1309" />

    
    <glyph glyph-name="fensi" unicode="&#58920;" d="M711.68 261.12C814.08 223.573333 887.466667 138.24 887.466667 42.666667l-47.786667 0c0 95.573333-109.226667 189.44-238.933333 189.44S366.933333 138.24 366.933333 42.666667l-47.786667 0c0 95.573333 71.68 182.613333 174.08 218.453333-80.213333 40.96-134.826667 122.88-134.826667 218.453333 0 134.826667 110.933333 245.76 247.466667 245.76 136.533333 0 247.466667-109.226667 247.466667-245.76C849.92 384 793.6 300.373333 711.68 261.12zM602.453333 677.546667c-109.226667 0-199.68-88.746667-199.68-197.973333 0-109.226667 88.746667-197.973333 199.68-197.973333 109.226667 0 199.68 88.746667 199.68 197.973333C802.133333 588.8 711.68 677.546667 602.453333 677.546667zM213.333333 464.213333c0-81.92 69.973333-148.48 150.186667-148.48l0 0 0-47.786667 0 0c-95.573333 0-179.2-64.853333-179.2-143.36L136.533333 124.586667c0 78.506667 49.493333 141.653333 124.586667 172.373333-58.026667 34.133333-95.573333 97.28-95.573333 168.96 0 109.226667 85.333333 196.266667 197.973333 196.266667l0-47.786667C283.306667 612.693333 213.333333 546.133333 213.333333 464.213333z"  horiz-adv-x="1024" />

    
    <glyph glyph-name="ju-icon-receiptAddress" unicode="&#58910;" d="M127.655 610.094c22.382 28.207 25.283 29.628 63.173 29.636 118.702 0.030 237.406 0.085 356.109-0.029 41.272-0.040 56.819-15.658 57.422-55.895 0.234-15.631 1.777-31.244 2.724-46.864 15.179-0.322 30.355-0.827 45.535-0.925 24.25-0.156 48.557-1.044 72.74 0.201 33.692 1.732 59.974-12.278 80.285-35.696 25.784-29.731 49.065-61.481 73.379-92.395 8.306-10.561 4.927-26.5 17.323-35.212 0-59.294 0-118.59 0-177.884-21.716-27.367-25.334-29.067-63.289-29.639-3.834-0.058-7.692-0.265-11.5 0.043-9.015 0.731-8.47-4.722-10.143-11.206-7.697-29.829-27.753-48.262-58.846-55.766-3.709-0.895-6.658-1.555-9.959-4.026-10.249 0-20.498 0-30.747 0-0.897 2.101-1.516 2.697-2.733 2.888-36.329 5.659-58.817 25.128-66.774 60.187-0.707 3.117-5.751 7.141-9.177 7.535-12.027 1.385-24.384-1.771-35.45 7.271-3.711 3.032-14.534 3.045-18.316 0.026-14.696-11.734-31.304-6.311-46.944-6.687-35.683-0.859-71.404-0.454-107.106-0.141-8.881 0.078-11.673-1.71-13.952-11.478-6.947-29.779-27.49-48.205-58.595-55.575-3.695-0.876-6.633-1.553-9.922-4.024-10.249 0-20.498 0-30.747 0-3.302 2.47-6.262 3.169-9.963 4.014-25.465 5.814-44.018 19.305-53.685 43.131-3.016 7.432-3.357 19.149-8.649 21.69-8.223 3.949-19.634 1.809-29.698 2.079-6.389 0.171-12.785 0.021-19.178 0.034-37.898 0.073-41 1.527-63.312 29.645-0.002 138.354-0.002 276.71-0.002 415.064zM573.495 398.695c0 65.341-0.608 130.692 0.47 196.016 0.239 14.529-4.933 15.676-17.462 15.635-126.58-0.412-253.162-0.256-379.743-0.247-19.882 0.001-18.382 2.228-18.376-17.763 0.038-123.285 0.019-246.57 0.019-369.856 0-2.466-0.164-4.944 0.028-7.395 1.022-13.104 7.045-19.423 20.457-19.935 14.043-0.536 28.153 0.42 42.181-0.272 13.9-0.685 25.74-0.366 21.891 18.209 16.341 34.737 68.328 72.572 123.592 44.806 21.806-10.956 40.328-25.715 44.265-48.182 2.577-14.705 7.366-14.935 18.757-14.832 42.19 0.381 84.387 0.050 126.58 0.201 17.091 0.061 17.281 0.312 17.308 18.687 0.089 61.643 0.033 123.284 0.033 184.928zM604.242 353.877c0-41.983 0-83.967 0-125.952 0-6.174-1.284-12.672 0.28-18.451 2.83-10.454 10.253-15.267 22.316-14.736 9.803 0.432 15.494 0.193 16.466 13.066 1.547 20.493 17.389 35.916 33.828 44.736 15.906 8.534 34.636 20.412 54.041 16.038 37.318-8.412 72.552-21.482 80.91-64.839 0.633-3.288 5.047-7.568 8.439-8.326 6.077-1.357 12.719-0.521 19.117-0.357 21.287 0.545 25.712 4.743 25.893 25.913 0.254 29.634 0.15 59.271 0.032 88.907-0.073 18.213-0.213 18.46-17.54 18.519-43.542 0.147-87.119 1.074-130.613-0.307-29.582-0.939-54.534 24.201-51.954 50.967 1.534 15.915 0.008 32.085 0.339 48.132 0.666 32.444 18.256 48.862 52.738 49.463 11.522 0.201 23.15-0.875 34.549 0.284 11.599 1.18 24.398-5.756 34.791 4.277-13.051 8.373-25.797 17.258-39.35 24.791-3.846 2.137-10.050 0.326-15.173 0.326-30.735 0-61.501-0.814-92.198 0.223-32.173 1.087-38.459-2.103-37.21-37.845 1.333-38.238 0.299-76.549 0.299-114.83zM788.755 358.091c12.72 0 25.449-0.295 38.157 0.084 12.408 0.369 24.794 1.425 37.19 2.18-4.626 12.472-7.322 26.085-14.351 37.137-9.516 14.961-21.943 28.307-34.024 41.58-3.612 3.968-10.188 7.47-15.508 7.611-27.962 0.748-55.964 0.688-83.938 0.201-13.020-0.227-19.243-6.931-19.676-20.398-0.512-15.929-0.548-31.899 0.005-47.824 0.511-14.682 6.924-20.227 23.459-20.482 22.889-0.352 45.789-0.088 68.685-0.088zM389.010 181.141c-0.316 35.557-25.63 58.851-63.422 58.362-36.237-0.469-60.212-25.455-59.568-62.079 0.579-32.928 26.246-56.511 61.503-56.511 36.704 0 61.805 24.585 61.487 60.228zM725.328 239.501c-36.257-0.467-58.749-25.483-60.079-62.040-0.993-27.281 30.748-60.54 65.865-57.094 33.284 3.265 57.91 26.764 57.613 60.751-0.309 35.559-25.624 58.869-63.399 58.384z"  horiz-adv-x="1024" />

    
    <glyph glyph-name="erweima" unicode="&#58892;" d="M514.56 515.072M361.984 188.928c10.752 30.208-12.288 57.344-40.96 54.272-18.944-2.048-30.208-12.8-33.792-27.648C273.408 162.816 346.624 147.456 361.984 188.928L361.984 188.928zM361.984 188.928M254.464 410.112l140.288 0c17.92 0 54.784-4.096 68.608 1.536 20.992 9.216 15.36 48.128 15.36 79.872L478.72 638.464c0 30.72 6.656 78.336-20.48 80.896L193.024 719.36c-10.24-3.072-16.896-10.24-20.48-20.48l0-268.288C177.664 402.432 221.696 410.112 254.464 410.112L254.464 410.112zM230.4 661.504l189.952 0 0-193.536L229.376 467.968 229.376 658.944C229.376 660.48 229.376 661.504 230.4 661.504L230.4 661.504zM230.4 661.504M306.688 529.408c25.6-13.312 58.368 4.096 57.856 36.352-0.512 24.576-21.504 42.496-48.128 37.376C279.552 595.968 277.504 544.768 306.688 529.408L306.688 529.408zM306.688 529.408M766.976 49.664l45.568 0c11.264 3.584 18.944 11.264 21.504 24.064l0 45.568L768 119.296C765.952 97.28 768 72.192 766.976 49.664L766.976 49.664zM766.976 49.664M672.256 525.824c61.44-10.24 62.464 89.088 0 77.312C631.808 595.456 632.832 532.48 672.256 525.824L672.256 525.824zM672.256 525.824M460.288 357.888c-18.432 5.632-47.616 1.024-67.584 1.024L257.024 358.912c-20.992 0-49.152 4.096-66.56-1.024-9.216-2.56-15.36-11.776-17.92-19.456l0-267.264c3.072-11.264 10.24-17.92 21.504-21.504l262.144 0c29.696 3.072 22.016 48.128 22.016 82.432l0 141.312C478.208 305.664 485.376 350.72 460.288 357.888L460.288 357.888zM420.352 107.008 229.376 107.008l0 190.976c0 1.024 0 2.56 1.024 2.56l189.952 0L420.352 107.008 420.352 107.008zM420.352 107.008M813.568 719.36l-264.704 0c-28.672-5.12-20.48-49.152-20.48-86.016L528.384 496.64c0-32.256-6.656-77.824 16.896-85.504 16.384-5.12 47.104-1.024 67.584-1.024l136.192 0c20.48 0 49.664-4.096 66.56 1.024 10.752 3.072 16.384 12.288 18.432 23.04l0 261.12C831.488 708.096 824.32 715.264 813.568 719.36L813.568 719.36zM776.192 467.968l-190.976 0L585.216 658.944c0 1.024 0 2.56 1.024 2.56l189.952 0L776.192 467.968 776.192 467.968zM776.192 467.968M776.704 358.912c-2.048-37.376-0.512-78.848-1.024-118.272l-59.392 0 0 118.272-129.024 0c-26.112 0-52.736 3.072-58.88-16.896-5.12-16.896-1.024-47.616-1.024-68.608l0-137.728c0-35.328-8.192-80.384 21.504-86.016l34.816 0c0.512 57.856-1.024 117.76 1.024 174.08 19.456-0.512 40.96 1.024 58.88-1.024l0-43.52 189.44 0c0.512 26.624-1.024 55.808 1.024 80.896l0 74.752C832 359.936 805.376 360.448 776.704 358.912L776.704 358.912zM776.704 358.912M643.584 49.664l64 0 0 69.12-62.976 0C642.56 97.28 644.096 72.192 643.584 49.664L643.584 49.664zM643.584 49.664"  horiz-adv-x="1024" />

    
    <glyph glyph-name="wuliugenzong" unicode="&#58886;" d="M92.39841 433.417503l74.937736 99.778494c15.31787 18.436908 25.676799 33.480532 50.311873 33.480532l169.558767 0c18.476817 0 33.540907-15.044648 33.540907-33.480532l0-334.766436c0-18.381649-14.96483-33.31885-33.332153-33.443693-0.9967 6.971785-2.87549 13.749142-5.500271 20.286022C371.879706 246.142236 318.043566 292.624896 253.119905 292.624896c-71.984475 0-130.34158-57.134255-130.478703-127.672798l-22.396079 0c-18.459421 0-33.530674 15.043624-33.530674 33.478486L66.714448 365.794359C66.714448 397.526061 92.39841 433.417503 92.39841 433.417503L92.39841 433.417503zM309.058938 365.794359 309.058938 493.434411l-85.519746 0c-5.634324 0-13.443174-7.53358-13.443174-7.53358l-73.617671-92.978624c-6.514367-8.763594-13.58746-19.150152-13.58746-27.125801l186.169073 0L309.059961 365.794359 309.058938 365.794359zM756.413616 256.074446c51.470255 0 93.202729-40.907689 93.202729-91.376127 0-50.468438-41.732473-91.373057-93.202729-91.373057s-93.199659 40.904619-93.199659 91.373057C663.210887 215.166757 704.941314 256.074446 756.413616 256.074446L756.413616 256.074446zM492.8785 694.675762l433.784614 0c19.160385 0 34.795481-15.387455 34.795481-34.249035L961.458595 180.920792c0-18.86465-15.638165-34.245965-34.795481-34.245965l-41.061185 0c0.847298 5.89015 1.294482 11.907191 1.294482 18.024515 0 70.657246-58.414411 127.926578-130.48382 127.926578S625.929796 235.353518 625.929796 164.698319c0-6.116301 0.447185-12.133342 1.297552-18.024515L492.8785 146.673803c-19.167548 0-34.805714 15.382339-34.805714 34.245965L458.072787 660.426727C458.07381 679.288307 473.711975 694.675762 492.8785 694.675762L492.8785 694.675762zM253.119905 256.074446c51.470255 0 93.199659-40.907689 93.199659-91.376127 0-50.468438-41.732473-91.373057-93.199659-91.373057-51.470255 0-93.202729 40.904619-93.202729 91.373057C159.917176 215.166757 201.64965 256.074446 253.119905 256.074446L253.119905 256.074446z"  horiz-adv-x="1024" />

    
    <glyph glyph-name="shanchu1" unicode="&#59099;" d="M561.00818 212.765057 561.00818 481.844445c0 31.358195 48.987714 31.358195 48.987714 0l0-269.080411C609.995895 181.403792 561.00818 181.403792 561.00818 212.765057L561.00818 212.765057 561.00818 212.765057M413.998989 212.765057 413.998989 481.844445c0 31.358195 49.01125 31.358195 49.01125 0l0-269.080411C463.009216 181.403792 413.998989 181.403792 413.998989 212.765057L413.998989 212.765057 413.998989 212.765057M830.512241 604.159212 708.017372 604.159212l0 48.941666c0 40.519856-32.94125 73.372078-72.745814 73.372078L389.503085 726.472955c-40.584324 0-73.503061-32.853245-73.503061-73.372078l0-48.941666L193.505156 604.159212c-31.404244 0-31.404244-48.89971 0-48.89971l637.007085 0C861.892949 555.259502 861.892949 604.159212 830.512241 604.159212L830.512241 604.159212 830.512241 604.159212M365.010251 653.101901c0 12.995989 11.477402 24.473391 24.492834 24.473391l245.769496 0c13.015432 0 23.734564-9.942443 23.734564-24.473391l0-48.941666-293.995871 0L365.011274 653.101901 365.010251 653.101901M683.503049 41.527045 340.491835 41.527045c-40.561811 0-73.480548 32.850176-73.480548 73.369008L267.011286 481.844445c0 14.530948 11.477402 24.472368 24.492834 24.472368 13.017478 0 24.49488-9.94142 24.49488-24.472368L315.999001 114.897076c0-12.969383 11.500938-24.446785 24.492834-24.446785l343.011214 0c13.015432 0 24.515347 11.476379 24.515347 24.446785L708.018396 481.087199c0 32.115442 48.987714 32.115442 48.987714 0l0-366.190123C757.00611 74.37722 724.087373 41.527045 683.503049 41.527045L683.503049 41.527045M683.503049 41.527045 683.503049 41.527045z"  horiz-adv-x="1024" />

    
    <glyph glyph-name="yiwancheng" unicode="&#59046;" d="M384 0 160 0c-52.9 0-96 43.1-96 96L64 736c0 52.9 43.1 96 96 96l512 0c52.9 0 96-43.1 96-96l0-192c0-17.7-14.3-32-32-32s-32 14.3-32 32L704 736c0 17.6-14.4 32-32 32L160 768c-17.6 0-32-14.4-32-32l0-640c0-17.6 14.4-32 32-32l224 0c17.7 0 32-14.3 32-32S401.7 0 384 0zM688-64c-72.7 0-141 28.3-192.3 79.7C444.3 67 416 135.3 416 208c0 72.7 28.3 141 79.7 192.3C547 451.7 615.3 480 688 480c72.7 0 141-28.3 192.3-79.7S960 280.6 960 208c0-72.7-28.3-141-79.7-192.3S760.7-64 688-64zM688 416c-114.7 0-208-93.3-208-208s93.3-208 208-208 208 93.3 208 208S802.7 416 688 416zM608 576 224 576c-17.7 0-32 14.3-32 32s14.3 32 32 32l384 0c17.7 0 32-14.3 32-32S625.7 576 608 576zM384 384 224 384c-17.7 0-32 14.3-32 32s14.3 32 32 32l160 0c17.7 0 32-14.3 32-32S401.7 384 384 384zM320 192l-96 0c-17.7 0-32 14.3-32 32s14.3 32 32 32l96 0c17.7 0 32-14.3 32-32S337.7 192 320 192zM704 96c-6.3 0-12.5 1.8-17.8 5.4l-96 64c-14.7 9.8-18.7 29.7-8.9 44.4 9.8 14.7 29.7 18.7 44.4 8.9l68.1-45.4 78.7 131.2c9.1 15.2 28.8 20.1 43.9 11 15.2-9.1 20.1-28.7 11-43.9l-96-160c-4.5-7.5-11.9-12.8-20.4-14.8C708.7 96.2 706.3 96 704 96z"  horiz-adv-x="1024" />

    
    <glyph glyph-name="yiwancheng1" unicode="&#58905;" d="M570.464034-127.722717 285.203915-127.722717c-83.718107 0-151.801724 64.521598-151.801724 143.867167L133.402191 751.370731c0 38.009087 15.378536 73.991876 43.298792 101.272248 29.157364 28.51748 67.891652 43.682722 109.036169 42.765555l465.408687 0c11.176634 1.876992 38.968913 1.535721 69.512691-35.748165 27.323031-33.337937 111.531715-137.788273 121.727194-150.457969 7.060049-6.65479 31.695569-32.378111 31.695569-67.934311l0-412.831583-42.658908 0L931.422384 595.793693l-99.22462 0c-82.03308 0-148.772942 66.995815-148.772942 149.306178l0 0c0 0-1.258438 42.914862-1.045143 107.649755L285.267904 852.749626c-29.861236 0.76786-57.888138-10.195479-78.748344-30.607767C186.875132 802.945351 176.061099 777.797925 176.061099 751.370731l0-735.226281c0-55.797852 48.972426-101.208259 109.142816-101.208259l285.260118 0L570.464034-127.722717zM725.081246 852.728297c-0.234624-64.116339 1.002484-106.540623 1.023814-107.0312 0-59.423859 47.586012-107.265824 106.114034-107.265824l99.22462 0 0 2.836817c0 20.220322-18.599284 37.134579-18.791249 37.305215l-2.452887 2.602193c-0.021329 0-93.444338 115.989571-122.516384 151.439124-17.831424 21.777373-29.370658 20.796218-29.30667 20.796218l-3.391383-1.194449-1.706356 0.511907L725.081246 852.728297zM943.985433 245.158798 943.985433 245.158798 943.985433 245.158798ZM732.375919-122.560989 586.055864 35.042347 617.303515 64.071734 730.498927-57.868755 926.51661 179.314774 959.385298 152.162379ZM279.423633 714.812047l249.383977 0 0-42.658908-249.383977 0 0 42.658908ZM279.423633 560.002869l249.383977 0 0-42.658908-249.383977 0 0 42.658908ZM284.500043 430.981002l249.383977 0 0-42.658908-249.383977 0 0 42.658908Z"  horiz-adv-x="1024" />

    
    <glyph glyph-name="dianpu" unicode="&#59048;" d="M256.66432 716.38144l537.2032 0c20.22912 0 36.63232 13.97632 36.63232 31.24096 0 17.26976-16.4032 31.264-36.63232 31.264l-537.2032 0c-20.22528 0-36.62592-13.99424-36.62592-31.264C220.03968 730.35648 236.44032 716.38144 256.66432 716.38144zM861.02144 653.8816 189.50912 653.8816l-61.04064-185.3696c0-57.15072 44.41088-103.46496 99.20128-103.46496 54.78912 0 99.1936 46.31296 99.1936 103.46496 0-57.15072 44.40832-103.46496 99.19872-103.46496 54.78528 0 99.2064 46.31296 99.2064 103.46496 0-57.15072 44.41088-103.46496 99.1936-103.46496 54.784 0 99.20768 46.31296 99.20768 103.46496 0-57.15072 44.4032-103.46496 99.2-103.46496 54.78912 0 99.19872 46.31296 99.19872 103.46496L861.02144 653.8816zM220.03968 319.11296l0.03328 0C220.05376 319.27296 220.03968 319.43552 220.03968 319.11296zM220.1344 319.11296l-0.06144 0C220.09216 318.95552 220.1152 318.80064 220.1344 319.11296zM800.33536 328.17536c-16.25856 0-29.53856-12.89216-30.41536-29.12768l-0.47488 0L769.44512 135.8976 281.07776 135.8976 281.07776 301.18272l-0.11648 0c-0.98688 16.12928-14.21568 28.90496-30.39872 28.90496s-29.41184-12.7744-30.39872-28.90496l-0.12416 0 0-227.79776c0-38.02496 32.86528-62.49856 61.03808-62.49856L769.4464 10.8864c36.7552 0 61.05344 28.36864 61.05344 62.49856l0 219.6608c0.19328 1.40288 0.3008 2.8352 0.3008 4.29184C830.80064 314.36928 817.16096 328.17536 800.33536 328.17536z"  horiz-adv-x="1024" />

    
    <glyph glyph-name="dingdan" unicode="&#58881;" d="M885.568-128 85.44-128C38.336-128 0-89.792 0-42.624L0 812.992C0 860.096 35.84 896 83.072 896l193.664 0 0-55.36L110.72 840.64c-31.488 0-55.36-23.936-55.36-55.36l0-802.624c0-31.36 23.936-55.36 55.36-55.36l747.2 0c31.552 0 55.424 24 55.424 55.36L913.344 785.28c0 31.424-23.872 55.36-55.424 55.36l-166.08 0L691.84 896 883.2 896c47.232 0 85.44-38.208 85.44-85.312l0-853.312C968.64-89.792 932.8-128 885.568-128zM235.264 633.088l498.176 0 0-55.36L235.264 577.728 235.264 633.088zM733.44 121.088 235.264 121.088l0 55.36 498.176 0L733.44 121.088zM235.264 411.648l498.176 0 0-55.296L235.264 356.352 235.264 411.648zM373.632 896l221.44 0 0-55.36-221.44 0L373.632 896z"  horiz-adv-x="1024" />

    
    <glyph glyph-name="huoban" unicode="&#58898;" d="M621.821221 830.503287c-144.244218 0-261.179464-118.370944-261.179464-264.379343 0-82.575694 38.197974-155.406442 96.80272-203.894783C316.496327 298.481278 218.201627 155.614429 218.201627-10.700457l0.576121 0c0-0.310062-0.153496-0.582261-0.153496-0.933255 0-28.263717 4.02978-51.244104 31.989575-51.244104 25.557072 0 26.991748 24.186865 26.991748 51.243081 0 0.349971 0.153496 0.62217 0.153496 0.933255l-0.576121 0c0 166.101016 138.728598 326.46333 247.997234 329.640696 0.187265-0.063445 0.375553-0.12689 0.562818-0.190335 29.229718-13.553691 76.336596-16.35448 97.508801-16.915251 116.169813 0.814552 259.751952 118.924553 259.789815 264.290315C883.041618 712.132342 766.103302 830.503287 621.821221 830.503287zM621.817128 356.293985c-114.64611 0-207.589942 94.081749-207.589942 210.134905 0 116.101251 92.943832 210.183 207.589942 210.183S829.454142 682.530141 829.454142 566.428889C829.454142 450.37471 736.51338 356.293985 621.817128 356.293985zM1024.915859-9.666918c0 90.695628-29.234835 174.414355-78.673827 242.135736-0.213871 0.291642-0.423649 0.585331-0.63752 0.87595-0.791016 1.077541-1.597381 2.14485-2.39863 3.214205-10.9504 14.553461-22.839171 28.342512-35.58138 41.268916l-0.113587-0.115634c-8.821923 9.122775-21.057595 14.866592-34.672684 14.866592-17.420765 0-34.745339-29.754674-20.558222-43.942815 73.134671-60.879556 113.654526-147.962913 113.654526-258.303974l-0.576121 0c0-0.310062 0.153496-0.582261 0.153496-0.933255 0-24.930809 1.234107-47.408753 21.420869-50.789757 1.721201-0.288572 3.563152-0.454348 5.570879-0.454348 23.588231 0 30.144554 16.356526 31.618115 38.442544 0.273223 4.093225 0.37146 8.382924 0.37146 12.801561 0 0.349971-0.154519 0.62217-0.154519 0.933255L1024.915859-9.667941zM390.040321 357.327524M182.450379 567.462428M391.474996 323.571722M306.576397 776.242476C201.415312 764.860241 128.865973 674.995537 128.865973 567.157483c0-82.575694 38.197974-134.701888 96.80272-183.190229C84.720543 320.219371 0 233.254717 0 66.940854l0.576121 0c0-0.310062-0.153496-0.582261-0.153496-0.933255 0-28.263717 4.02978-51.244104 31.989575-51.244104 25.557072 0 26.991748 24.186865 26.991748 51.243081 0 0.349971 0.153496 0.62217 0.153496 0.933255l-0.576121 0c0 166.101016 125.153418 270.561136 234.423077 273.738501 0.090051-0.030699 17.445324 2.481518 21.425985 14.392802 4.53734 13.576203 4.191462 31.518854-15.653515 40.041972-68.543096 29.435403-116.725468 89.284489-116.725468 172.350346 0 94.332459 55.852052 133.595694 136.462998 153.750733C342.93549 727.218946 341.382111 780.010289 306.576397 776.242476z"  horiz-adv-x="1025" />

    
    <glyph glyph-name="huoban1" unicode="&#58891;" d="M621.817128 776.611889c-114.64611 0-207.589942-94.081749-207.589942-210.183 0-116.054179 92.943832-210.134905 207.589942-210.134905 114.696252 0 207.637014 94.081749 207.637014 210.134905C829.454142 682.530141 736.463238 776.611889 621.817128 776.611889zM883.041618 566.123944c0 146.009422-116.938316 264.379343-261.219373 264.379343-144.244218 0-261.179464-118.370944-261.179464-264.379343 0-82.575694 38.197974-155.406442 96.80272-203.894783C316.496327 298.481278 218.201627 155.614429 218.201627-10.700457l0.576121 0c0-0.310062-0.153496-0.582261-0.153496-0.933255 0-28.263717 4.02978-51.244104 31.989575-51.244104 25.557072 0 26.991748 24.186865 26.991748 51.243081 0 0.349971 0.153496 0.62217 0.153496 0.933255l-0.576121 0c0 166.101016 138.728598 326.46333 247.997234 329.640696 0.187265-0.063445 0.375553-0.12689 0.562818-0.190335 29.229718-13.553691 76.336596-16.35448 97.508801-16.915251C739.420593 302.647157 883.003755 420.757159 883.041618 566.123944zM621.817128 356.293985c-114.64611 0-207.589942 94.081749-207.589942 210.134905 0 116.101251 92.943832 210.183 207.589942 210.183S829.454142 682.530141 829.454142 566.428889C829.454142 450.37471 736.51338 356.293985 621.817128 356.293985zM1024.915859-9.666918c0 90.695628-29.234835 174.414355-78.673827 242.135736-0.213871 0.291642-0.423649 0.585331-0.63752 0.87595-0.791016 1.077541-1.597381 2.14485-2.39863 3.214205-10.9504 14.553461-22.839171 28.342512-35.58138 41.268916l-0.113587-0.115634c-8.821923 9.122775-21.057595 14.866592-34.672684 14.866592-17.420765 0-34.745339-29.754674-20.558222-43.942815 73.134671-60.879556 113.654526-147.962913 113.654526-258.303974l-0.576121 0c0-0.310062 0.153496-0.582261 0.153496-0.933255 0-24.930809 1.234107-47.408753 21.420869-50.789757 1.721201-0.288572 3.563152-0.454348 5.570879-0.454348 23.588231 0 30.144554 16.356526 31.618115 38.442544 0.273223 4.093225 0.37146 8.382924 0.37146 12.801561 0 0.349971-0.154519 0.62217-0.154519 0.933255L1024.915859-9.667941zM390.040321 357.327524M182.450379 567.462428M391.474996 323.571722M306.576397 776.242476C201.415312 764.860241 128.865973 674.995537 128.865973 567.157483c0-82.575694 38.197974-134.701888 96.80272-183.190229C84.720543 320.219371 0 233.254717 0 66.940854l0.576121 0c0-0.310062-0.153496-0.582261-0.153496-0.933255 0-28.263717 4.02978-51.244104 31.989575-51.244104 25.557072 0 26.991748 24.186865 26.991748 51.243081 0 0.349971 0.153496 0.62217 0.153496 0.933255l-0.576121 0c0 166.101016 125.153418 270.561136 234.423077 273.738501 0.090051-0.030699 17.445324 2.481518 21.425985 14.392802 4.53734 13.576203 4.191462 31.518854-15.653515 40.041972-68.543096 29.435403-116.725468 89.284489-116.725468 172.350346 0 94.332459 55.852052 133.595694 136.462998 153.750733C342.93549 727.218946 341.382111 780.010289 306.576397 776.242476z"  horiz-adv-x="1025" />

    
    <glyph glyph-name="paixingbang" unicode="&#58919;" d="M970.6752 700.48256 873.0624 700.48256 873.0624 838.29248c0 25.3696-20.56704 45.93664-45.93664 45.93664L195.5072 884.22912c-25.3696 0-45.93664-20.56704-45.93664-45.93664l0-137.80992L51.95776 700.48256c-25.3696 0-45.93664-20.56704-45.93664-45.93664l0-195.23072c0-115.64032 85.47328-211.2768 196.68992-227.28192 59.91424-96.77824 164.87936-162.69312 285.63968-168.45312l0-132.52608L287.37536-68.94592c-12.68736 0-22.96832-10.28608-22.96832-22.96832s10.28096-22.9632 22.96832-22.9632l447.87712 0c12.68736 0 22.9632 10.28096 22.9632 22.9632s-10.28096 22.96832-22.9632 22.96832l-200.97024 0 0 132.52608c120.76032 5.76 225.73056 71.67488 285.63968 168.45312 111.21152 16.00512 196.6848 111.6416 196.6848 227.28192L1016.60672 654.55104C1016.61184 679.92064 996.0448 700.48256 970.6752 700.48256zM51.95776 447.84128 51.95776 631.5776c0 12.68736 10.28096 22.96832 22.96832 22.96832l74.64448 0 0-235.4176c0-48.52736 9.74336-94.76096 27.32032-136.91392C104.77568 302.78656 51.95776 369.12128 51.95776 447.84128zM827.12576 424.86784c0-174.4128-141.39392-315.81184-315.81184-315.81184s-315.80672 141.39392-315.80672 315.81184L195.5072 815.32416c0 12.68736 10.28096 22.96832 22.96832 22.96832l585.68192 0c12.68736 0 22.96832-10.28608 22.96832-22.96832L827.12576 424.86784zM970.6752 447.84128c0-78.72-52.81792-145.05472-124.93312-165.62688 17.57696 42.15296 27.32032 88.39168 27.32032 136.91392l0 235.4176 74.64448 0c12.68736 0 22.96832-10.28608 22.96832-22.96832L970.6752 447.84128zM566.20032 547.75296 511.31904 648.80128 456.43776 547.75296l-111.616-21.77024 77.696-84.21888-14.10048-114.49856 102.90176 48.9984 102.89664-48.9984-14.10048 114.49856 77.696 84.21888L566.20032 547.75296zM578.41152 377.41056l-66.88256 31.8464-66.88256-31.8464 9.16992 74.4192L403.30752 506.5728l72.54528 14.15168 35.67104 65.67936 35.67616-65.67936 72.5504-14.15168-50.49856-54.74304L578.41152 377.41056z"  horiz-adv-x="1024" />

    
    <glyph glyph-name="ketixian" unicode="&#58888;" d="M954.368 254.464c1.024-2.048 1.024-4.096 1.024-6.144 0-2.048-0.512-4.096-1.024-6.144-0.512-1.024-1.024-2.048-2.048-3.072-0.512-0.512-1.024-1.536-1.536-2.048l-89.088-94.208c-6.144-6.656-16.384-6.656-22.528-0.512-6.656 6.144-6.656 16.896-0.512 23.04L901.12 231.424h-211.968c-8.704 0-15.872 7.168-15.872 16.384 0 9.216 7.168 16.384 15.872 16.384H901.12l-62.464 66.048c-6.144 6.656-6.144 16.896 0.512 23.04 6.144 6.144 16.384 6.144 22.528-0.512l89.088-94.208c0.512-0.512 1.024-1.536 1.536-2.56 1.024 0 1.536-0.512 2.048-1.536z m-345.6 148.992c9.728 0 17.408-8.192 17.408-17.92s-7.68-17.92-17.408-17.92H496.64v-41.472h111.616c9.728 0 17.408-8.192 17.408-17.92 0-10.24-7.68-17.92-17.408-17.92H496.64v-76.8c0-10.24-7.68-17.92-17.408-17.92s-17.408 8.192-17.408 17.92v76.8h-111.616c-9.728 0-17.408 8.192-17.408 17.92s7.68 17.92 17.408 17.92h111.616v41.472h-111.616c-9.728 0-17.408 8.192-17.408 17.92s7.68 17.92 17.408 17.92h111.616v22.016c-1.024 1.536-1.536 3.072-2.048 4.608l-103.424 110.592c-6.656 7.168-6.656 18.432 0 25.6s17.92 7.168 25.088 0l98.304-105.984 98.304 105.984c6.656 7.168 17.92 7.168 25.088 0 6.656-7.168 6.656-18.432 0-25.6L498.688 430.08c-0.512-1.536-1.024-3.072-2.048-4.608v-21.504h112.128z m-134.144 358.4c-207.872 0-376.832-169.472-376.832-377.856 0-208.384 168.96-377.856 376.832-377.856 88.576 0 169.984 30.72 234.496 82.432H763.392c-37.376-36.352-80.384-65.536-128-85.504-50.688-21.504-104.96-32.768-160.768-32.768-55.808 0-109.568 10.752-160.768 32.768-49.152 20.992-93.184 50.688-131.072 88.576-37.888 37.888-67.584 82.432-88.576 131.584-21.504 51.2-32.256 104.96-32.256 161.28 0 55.808 10.752 110.08 32.256 161.28 20.992 49.152 50.688 93.696 88.576 131.584 37.888 37.888 81.92 67.584 131.072 88.576 50.688 21.504 104.96 32.768 160.768 32.768 55.808 0 109.568-10.752 160.768-32.768 49.152-20.992 93.184-50.688 131.072-88.576 37.888-37.888 67.584-82.432 88.576-131.584 18.432-44.032 29.184-90.112 31.744-137.216h-35.84c-12.8 196.608-176.64 353.28-376.32 353.28z"  horiz-adv-x="1024" />

    
    <glyph glyph-name="tuiguangfei" unicode="&#59311;" d="M406.189627 595.628932h211.636095l79.363536 92.590791s27.710109 33.639145 0 52.909024c0 0-13.778818 7.853875-39.681768-13.227256 0 0-20.942985-26.454512-39.681768 0s-25.490557 39.269375-39.681768 39.681768c-18.73162 0.545422-28.659737-13.227256-39.681767-26.454512s-25.360598-30.733978-52.909024 0c-23.836895 26.591635-28.659737 26.454512-39.681768 26.454512s-25.976628-20.99415-39.681768-39.681768c-12.125155-16.534582-30.128181-1.960655-52.909023 13.227256-16.534582 11.022031-48.500621-12.125155-26.454512-39.681768l79.363535-105.818047z m224.863351-26.454512H392.962372s-196.518792-102.8259-198.408839-304.226886c-1.75497-187.073676 137.941676-264.545118 330.681398-264.545119s304.226886 83.142605 304.226886 277.772374c0 134.162606-126.603443 247.538793-198.408839 290.999631z m-34.886555-137.071866l21.450545-16.680914-57.494459-76.233242-21.450545 16.680915 57.494459 76.233241z m-161.328315-3.313465l56.296167-73.509201-21.00336-16.084327-56.296167 73.509201 21.00336 16.084327zM644.280234 304.628278H525.234931v-79.363535h119.045303v-26.454512H525.234931v-66.13628h-26.454512v66.13628H379.735116v26.454512h119.045303V304.628278H379.735116v26.454512h264.545118v-26.454512z"  horiz-adv-x="1024" />

    
    <glyph glyph-name="VIP" unicode="&#58929;" d="M386.955 340.124c-3.263-8.698-5.382-17.215-6.343-25.558h-0.907c-1.212 9.554-3.08 17.946-5.616 25.194l-75.564 219.444h-40.243L359.41 278.52h40.215l97.072 264.218v-14.157h26.987V309.13h-26.987v-30.61h90.243v30.61h-27.014V528.58h27.014v30.624H463.968l-77.013-219.08z m377.583 197.154c-16.74 14.622-40.27 21.926-70.574 21.926h-79.732V278.52h36.241V383.432h36.41c29.356-0.962 53.833 7.096 73.403 24.198 19.571 17.09 29.357 39.407 29.357 66.95 0 27.181-8.378 48.076-25.105 62.698zM734.36 430.281c-11.471-9.966-28.269-14.957-50.377-14.957h-33.51V527.312h36.967c42.766 0 64.15-18.058 64.15-54.181 0-18.603-5.745-32.89-17.23-42.85z m207.094 119.243l-1.56 6.308c-19.962 22.901-142.095 163.13-189.335 214.23-14.581 15.794-25.412 26.722-47.715 27.6-22.302 0.823-381.808 0-381.808 0-12.28 0-28.087-2.878-48.396-26.721-47.366-55.673-153.163-172.121-189.168-215.11-24.408-28.366-27.516-72.664 0-114.19 58.53-68.427 218.775-256.375 380.763-443.439 23.013-26.595 37.468-27.6 47.713-27.6 10.008 0 24.227 0.473 47.7 27.6C720.06 183.51 872.583 362.997 939.895 441.642c22.76 27.544 28.546 75.23 1.56 107.882z m-15.834-79.335c-58.35-71.648-232.27-273.423-371.117-442.492-20.31-24.672-34.193-28.547-42.822-28.547-8.824 0-22.888 4.405-42.821 28.547C328.674 198.313 148.413 407.84 97.744 470.19c-14.149 15.256-13.842 35.155 0 57.095 31.111 39.204 144.423 163.66 185.558 214.106 30.54 37.53 46.431 28.547 57.094 28.547h342.57c39.684 0 38.737-6.343 57.095-28.547 39.615-48.034 168.344-193.24 185.559-214.106 15.235-22.943 10.663-38.905 0-57.095z"  horiz-adv-x="1024" />

    
    <glyph glyph-name="liebiao" unicode="&#59352;" d="M787.297381 350.974726H408.4591c-13.885405 0-25.122902 11.235064-25.122902 25.120469 0 13.875675 11.237497 25.125335 25.122902 25.125335h378.838281c13.890271 0 25.126551-11.24966 25.126551-25.125335 0-13.885405-11.237497-25.120469-25.126551-25.120469m0 192.46904H408.4591c-13.885405 0-25.122902 11.248443-25.122902 25.124118 0 13.874459 11.237497 25.122902 25.122902 25.122902h378.838281c13.890271 0 25.126551-11.248443 25.126551-25.122902 0-13.875675-11.237497-25.124118-25.126551-25.124118M261.826737 133.384c-27.748917 0-50.250669 22.496887-50.250669 50.242155 0 27.750134 22.501752 50.24702 50.250669 50.247021 27.746485 0 50.245804-22.49567 50.245805-50.247021 0-27.747701-22.499319-50.242155-50.245805-50.242155m0 192.466608c-27.748917 0-50.250669 22.501752-50.250669 50.244587 0 27.75135 22.501752 50.249453 50.250669 50.249453 27.746485 0 50.245804-22.496887 50.245805-50.249453 0-27.742836-22.499319-50.244588-50.245805-50.244587m0 192.471472c-27.748917 0-50.250669 22.49567-50.250669 50.245804 0 27.748917 22.501752 50.24702 50.250669 50.247021 27.746485 0 50.245804-22.496887 50.245805-50.247021s-22.499319-50.245804-50.245805-50.245804m146.632363-309.57059h378.838281c13.890271 0 25.126551-11.23628 25.126551-25.122902s-11.23628-25.121686-25.126551-25.121686H408.4591c-13.885405 0-25.122902 11.235064-25.122902 25.121686 0 13.885405 11.23628 25.122902 25.122902 25.122902m0 0z"  horiz-adv-x="1024" />

    
    <glyph glyph-name="zuanshi" unicode="&#59022;" d="M954.681344 573.62432l-122.333184 233.32864c-6.998016 13.9776-26.218496 24.464384-41.07264 24.464384H232.001536c-14.854144 0-34.08384-10.487808-41.07264-24.464384l-122.3424-228.953088c-6.9888-13.986816-6.120448-35.82976 3.499008-47.194112l419.454976-585.483264c4.366336-6.120448 10.478592-8.742912 16.59904-8.742912s12.232704 2.62144 16.608256 8.742912l426.443776 580.23936c9.61024 13.109248 11.355136 27.963392 5.243904 43.695104-0.877568 1.74592-0.877568 3.499008-1.754112 4.36736z m-67.282944 6.120448H737.969152l60.294144 172.148736 89.135104-172.148736zM566.688768 775.49056H746.702848l-55.927808-159.916032-124.086272 159.916032z m81.268736-195.745792H388.419584L510.761984 756.269056l137.19552-176.524288zM338.613248 606.831616l-55.927808 168.658944h173.893632L338.613248 606.831616z m320.708608-83.013632l-150.305792-429.94176L365.699072 523.817984h293.622784z m-213.230592-418.578432l-300.602368 418.577408H307.149824l138.94144-418.577408z m272.648192 418.578432h161.670144l-308.476928-419.454976 146.806784 419.454976zM228.503552 759.759872l60.294144-180.01408h-155.54048l95.246336 180.01408z"  horiz-adv-x="1024" />

    
    <glyph glyph-name="shoucang" unicode="&#58899;" d="M825.182208-84.385792l-311.752704 221.664256-311.773696-221.664256 114.49088 364.97408-307.14368 228.005376 382.5024 3.909632 121.924096 362.578432 121.923584-362.578432L1017.856 508.593664l-307.144192-228.005376 114.4704-364.97408z m-311.752704 283.453952l218.883072-155.633152-80.36864 256.247808 215.650816 160.083456-268.563968 2.750464-85.60128 254.568448L427.8272 462.516736l-268.562944-2.750464 215.650816-160.083456-80.381952-256.247808 218.896384 155.633152z"  horiz-adv-x="1024" />

    
    <glyph glyph-name="hezuohuoban" unicode="&#58893;" d="M967.68 264.192v-60.416c0-128-100.864-231.424-225.28-231.424-9.728 0-29.184 0.512-29.184 0h-39.936c-10.24 92.672-83.968 165.888-175.616 170.496v131.584c49.664 5.12 89.088 47.616 89.088 100.352 0 55.808-44.032 101.376-98.816 101.376-54.272 0-98.816-45.568-98.816-101.376 0-52.736 38.912-95.232 89.088-100.352v-131.584c-91.136-5.12-165.376-77.824-175.616-170.496l-39.936 0.512c-119.808 5.632-215.552 106.496-215.552 230.912v60.416c0 110.592 75.264 202.752 176.128 225.792v35.328c-51.2 20.48-88.064 71.168-88.064 131.072 0 77.824 61.44 140.8 137.216 140.8s137.216-62.976 137.216-140.8c0-59.904-36.864-111.104-88.064-131.072v-35.328c22.016-5.12 42.496-13.312 61.44-24.576 25.088 30.72 62.976 50.176 104.96 50.176 50.176 0 93.696-27.648 117.76-68.608 25.6 20.48 55.296 35.328 88.064 43.008v35.328c-51.2 20.48-88.064 71.168-88.064 131.072 0 77.824 61.44 140.8 137.216 140.8s137.216-62.976 137.216-140.8c0-59.904-36.864-111.104-88.064-131.072v-35.328c100.352-23.04 175.616-115.712 175.616-225.792z m-646.144 174.08l-39.424 6.656v111.104c49.664 5.12 89.088 47.616 89.088 100.352 0 55.808-44.032 101.376-98.816 101.376-54.272 0-98.816-45.568-98.816-101.376 0-52.736 38.912-95.232 89.088-100.352V444.928l-39.424-6.656c-78.848-22.528-137.216-96.768-137.216-185.856v-36.864c0-105.984 81.92-191.488 183.808-193.024 22.016 82.432 86.528 146.944 168.448 165.376v55.296c-51.712 20.48-88.064 71.68-88.064 131.584 0 16.896 3.072 32.768 8.192 47.616-11.264 6.656-23.552 11.776-36.864 15.872z m519.68 218.112c0 55.808-44.032 101.376-98.816 101.376-54.784 0-98.816-45.568-98.816-101.376 0-52.736 38.912-95.232 89.088-100.352V444.928l-39.424-6.656c-26.624-7.68-50.176-20.992-70.656-38.912 1.536-8.192 2.048-15.872 2.048-24.576 0-59.904-36.352-111.104-88.064-131.584v-55.296c80.384-18.432 144.384-80.384 167.424-160.768 12.288-2.56 25.088-4.608 37.888-4.608 102.912 0 185.856 86.528 185.856 193.024v36.864c0 89.088-58.368 163.84-137.216 185.856l-39.424 6.656v111.104c51.2 5.12 90.112 48.128 90.112 100.352z"  horiz-adv-x="1024" />

    
    <glyph glyph-name="fensi1" unicode="&#58970;" d="M891.038 106.678L741-32 589.039 108.281c-4.867 4.162-9.329 12.532-13.32 17.544L573.618 128h0.413C561.454 144.714 554 165.487 554 188c0 55.229 44.852 100 100.179 100 37.114 0 69.512-20.147 86.822-50.081C758.31 267.853 790.708 288 827.821 288 883.148 288 928 243.229 928 188c0-31.299-13.357-60-36.962-81.322zM826 256c-30.862 0-71.606-37.117-86-62-14.394 24.883-46.138 62-77 62-46.007 0-78-32.216-78-78.125 0-18.714 19.199-31.982 29.657-45.875h-0.343l1.747-1.808c3.319-4.166 9.029-10.536 13.076-14.583L741 6l112 109c19.628 17.724 43 36.858 43 62.875C896 223.784 872.007 256 826 256z m-286.342 51.305c-29.342-16-80.846-18.742-80.846-18.742-5.559-0.36-11.161-0.563-16.812-0.563-5.651 0-11.253 0.203-16.813 0.564C277.488 280.942 156.727 173.112 128 32c0-17.673 14.327-32 32-32h272c8.837 0 16-7.163 16-16s-7.163-16-16-16H160c-35.346 0-64 28.654-64 64 24.228 132.205 120.907 238.693 248.342 275.305C251.407 345.692 186 437.201 186 544c0 141.385 114.615 256 256 256s256-114.615 256-256c0-106.799-65.407-198.308-158.342-236.695zM442 768c-123.712 0-224-100.288-224-224 0-118.17 91.507-214.96 207.526-223.395A358.647 358.647 0 0 0 442 321c5.523 0 11.012-0.144 16.474-0.395C574.493 329.04 666 425.83 666 544c0 123.712-100.288 224-224 224z m86-768c8.837 0 16-7.163 16-16s-7.163-16-16-16-16 7.163-16 16 7.163 16 16 16z"  horiz-adv-x="1024" />

    
    <glyph glyph-name="weixin" unicode="&#58885;" d="M338.895238 510.780952c17.066667 0 29.257143 12.190476 29.257143 30.476191s-12.190476 29.257143-29.257143 29.257143-35.352381-12.190476-35.352381-29.257143c0-18.285714 17.066667-30.47619 35.352381-30.476191z m164.571429 59.733334c-17.066667 0-35.352381-12.190476-35.352381-29.257143 0-18.285714 18.285714-30.47619 35.352381-30.476191 18.285714 0 29.257143 12.190476 29.257143 30.476191 0 17.066667-10.971429 29.257143-29.257143 29.257143z m206.019047-221.866667c18.285714 0 29.257143 12.190476 29.257143 24.380952s-12.190476 24.380952-29.257143 24.380953c-12.190476 0-23.161905-12.190476-23.161904-24.380953s12.190476-24.380952 23.161904-24.380952z m-129.219047 0c18.285714 0 29.257143 12.190476 29.257143 24.380952s-12.190476 24.380952-29.257143 24.380953c-12.190476 0-23.161905-12.190476-23.161905-24.380953s10.971429-24.380952 23.161905-24.380952zM1.219048 384c0-282.819048 229.180952-512 512-512s512 229.180952 512 512S794.819048 896 512 896C230.4 896 1.219048 666.819048 1.219048 384z m629.028571 121.904762c-112.152381 0-199.92381-85.333333-199.923809-188.952381 0-17.066667 2.438095-34.133333 7.314285-49.980952-7.314286-1.219048-14.628571-1.219048-21.942857-1.219048-29.257143 0-53.638095 6.095238-82.895238 12.190476l-82.895238-41.447619 23.161905 71.92381c-58.514286 41.447619-93.866667 95.085714-93.866667 160.914285 0 113.371429 106.057143 203.580952 235.27619 203.580953 115.809524 0 216.990476-71.92381 237.714286-168.228572-6.095238 0-14.628571 1.219048-21.942857 1.219048z m215.771429-186.514286c0-53.638095-35.352381-101.180952-82.895238-137.752381l18.285714-59.733333-64.609524 35.352381c-23.161905-6.095238-47.542857-12.190476-70.704762-12.190476-112.152381 0-201.142857 78.019048-201.142857 173.104762 0 95.085714 88.990476 173.104762 201.142857 173.104761 104.838095 1.219048 199.92381-76.8 199.92381-171.885714z"  horiz-adv-x="1025" />

    
    <glyph glyph-name="wancheng" unicode="&#58911;" d="M511.984642 788.064057c229.90833-0.038908 415.462972-183.841682 415.328843-411.405315-0.133105-225.585486-186.876478-408.58963-416.820644-408.473931-230.210376 0.115699-414.930552 184.377174-414.604956 413.573904 0.318428 223.408706 187.661798 406.344249 416.096757 406.305342z m-61.836531-462.772618c-3.210904 2.863807-5.794167 4.967892-8.153198 7.299279-33.187195 32.807334-66.30579 65.685315-99.526773 98.45886-14.406067 14.212552-21.73299 14.105044-36.331547-0.21092-9.274353-9.094149-18.48113-18.257923-27.681764-27.426816-15.885581-15.831315-15.985922-22.46814-0.199658-38.153039a125598.651031 125598.651031 0 0 1 150.623771-149.415585c17.690691-17.51663 23.855504-17.501272 41.609675-0.012287 85.340842 84.067128 170.642776 168.173165 255.954949 252.269986 7.879821 7.767194 15.899915 15.403331 23.545267 23.395779 8.795175 9.19449 8.879134 18.779081-0.132081 27.93364-10.123154 10.284928-20.461324 20.358936-30.717584 30.512806-17.169533 16.996496-23.399875 17.066121-40.504903 0.206825-71.955589-70.919417-143.880461-141.868527-215.831955-212.792039-4.054586-3.998272-8.241253-7.864463-12.654199-12.066489z"  horiz-adv-x="1024" />

    
    <glyph glyph-name="lcon" unicode="&#59330;" d="M819.246151 832.586738H205.371926c-86.004793 0-86.004793-85.639472-86.004793-85.639472v-727.939098s0-85.640496 87.318718-85.640495h508.032642l187.867762 149.870356V746.947266c-0.001023 0-1.313925 85.639472-83.340104 85.639472z m41.003879-727.938074L690.907181-23.814126H225.207693c-63.503313 0-63.503313 64.23293-63.503313 64.23293V725.537653s0 64.230883 63.503313 64.230884h571.536978c63.506383 0 63.506383-64.230883 63.506383-64.230884v-620.888989h-0.001024zM267.542894 361.568105h486.865553v-42.820248H267.542894v42.820248z m0 171.277921h486.865553v-42.819224H267.542894V532.846026z m0 171.279969h232.850255v-42.819225H267.542894v42.819225z m550.370912-492.429269H627.401822v-192.689581h42.3352V168.877501h148.176784v42.819225z"  horiz-adv-x="1024" />

    
    <glyph glyph-name="diamond-line" unicode="&#58915;" d="M904.154 537.237l-113.008 195.136c-7.374 12.711-23.771 22.29-38.149 22.29h-476.466c-14.381 0-30.777-9.578-38.133-22.29l-113.009-195.136c-81.264-137.905-141.89-298.661-172.544-469.812 165.34 457.201 164.665 455.969 164.202 455.119-1.061-1.964-4.279-7.951-0.582-14.665l3.826-6.901h1.563c1.798-2.253 4.212-5.327 7.15-9.090l364.625-467.585c3.551-4.571 8.339-8.028 13.858-9.898l-2.336 0.949c3.131-1.318 6.481-2.017 9.895-2.017s6.765 0.699 9.895 2.017l3.59 1.834c4.989 3.088 8.907 7.483 11.337 12.703l361.211 461.989c9.586 12.309 10.907 31.798 3.067 45.353M878.461 528.272h-187.3l81.25 183.119 106.049-183.119M514.913 717.575l129.996-189.302h-259.993l129.996 189.302M361.778 541.894l-82.295 185.487h209.67l-127.375-185.487M540.668 727.38h209.668l-82.295-185.487-127.371 185.487M652.309 500.979l-137.266-437.906-137.526 437.906h274.793M257.294 711.657l81.363-183.378h-187.567l106.205 183.378M155.952 500.979h193.684l130.609-415.873-324.295 415.873M680.185 500.979h193.968l-324.353-415.949 130.387 415.949M680.185 500.979z"  horiz-adv-x="1024" />

    
    <glyph glyph-name="yifukuan" unicode="&#58916;" d="M167.6 797.8h577c21.8-4.6 43.1-16.2 55.1-35.5 13.5-17.4 12.4-41 13.3-61.8-0.5-133.5-0.1-267.1-0.2-400.6H781c-0.1 112.3 0 224.6 0 337-0.2 28.5 1.3 57.1-1 85.5-4.1 16.3-16.6 29.7-30.8 38.1-11.6 7.4-26.3 4.6-39.3 5.8-171.6-0.3-343.3-0.3-514.9 0-36.5 6.2-69.8-30.1-65.5-65.7-0.2-177.9 0.4-355.7-0.3-533.6 0.6-15.4-0.4-31.9 6.3-46.3 8.5-13.6 20.4-26.5 36.4-30.8 12.6-1.8 25.4-1.6 38.1-1.7 131 0.6 262.1 0.2 393.1 0.3v-31.8c-140.4 0-280.8 0-421.2-0.1-28.2-1.3-56.4 13.3-71.4 37.3-8.5 12.4-9.8 28-12.8 42.4V718.2c2.3 11.8 4.1 24 8.8 35.2 11.2 23.9 35.8 39.2 61.1 44.4z m194-215.2c9.4 4.8 17.8-3.6 23.6-10 24.1-28.1 47.1-57.1 71.7-84.6 26 28.7 49.6 59.6 76.3 87.6 11.3 11 31.9-1.9 28.6-17.1-8.4-16.4-22.7-28.6-34.1-42.9-16.9-20.7-35.4-40.1-51.1-61.8 28.4-0.8 56.8 0.4 85.2-0.7 6.4-0.1 11.4-5.3 13.1-11.1 3.9-9.7-3.3-22.4-13.9-23.3-28.4-2-56.9-0.7-85.3-0.9 0-11.9-0.1-23.7 0-35.6 29.1-0.4 58.4 1.5 87.4-0.7 15.7-4 17.5-27.3 2.9-33.3-29.8-3.4-60.1-1-90.1-1.5-0.1-16 0.7-32.1-1-48.1-3.9-15.1-28.5-16.1-33.3-1.2-2.5 16.3-1.4 32.9-1.6 49.3-28.7 0.2-57.4-0.6-86 0-10.2-0.1-18.7 10.1-16.8 20.3 2.1 6.5 6.5 13.4 13.9 14.2 29.6 2.3 59.4 0.7 89.1 1v35.6c-28.1 0.1-56.2-0.8-84.2 0.2-11.1 0.6-22.1 11.8-18.2 23.5 3.2 6.8 9.8 13.3 18.1 12.2 27.7 2.6 55.6 1.1 83.3 1.8-28.1 33.7-57.7 66.1-86 99.7-6.8 9.2-2.9 24.4 8.4 27.4z m561.7-331.5c5.3 6.1 16.6 8.8 22.1 1.6 6.4-7 3-18.2-3.9-23.7-43.2-44.8-86.6-89.4-130-134-14.9-15.6-28.6-33.3-47.5-44.2h-1.5c-8.8 4.6-16.1 11.5-23.5 18.1-22.9 20.8-45.3 42.1-68.4 62.7-7.9 7.1-16.1 13.9-22.4 22.5-5.3 6.7-1.3 18.6 6.9 20.9 6.9 3 13.1-3.2 18.5-6.8 30.3-26.9 59-55.5 89.7-81.9 53.7 54.6 106.2 110.3 160 164.8z"  horiz-adv-x="1024" />

    
    <glyph glyph-name="xiangxia" unicode="&#59186;" d="M512-99.55328l398.22336 568.8832h-170.67008V583.11168H284.44672v-113.78176H113.78176L512-99.55328z m227.55328 853.33504H284.44672V640h455.11168V753.78176z m0 113.77152H284.44672v-56.8832h455.11168V867.55328z"  horiz-adv-x="1024" />

    
    <glyph glyph-name="weifukuan" unicode="&#58932;" d="M695.1 317c-53.8 0-97-42-97-93.2s43.2-93.2 97-93.2c53.2 0 97 42 97 93.2s-43.2 93.2-97 93.2z m64.3-106.2h-76.8v73.9h17.7v-56.8h59.1v-17.1zM579.6 830.3C333.6 867.2 105.9 701.1 69 455s129.2-473.7 375.3-510.6c246.1-36.9 473.7 129.2 510.6 375.3 36.9 246-129.2 473.7-375.3 510.6z m-9.3-671.2h-236c-26.6 0-47.9 19.6-47.9 43.9V598.7c0 24.5 21.3 43.9 47.9 43.9h365.6c26.6 0 47.9-19.6 47.9-43.9v-249.1h-23.6v241c0 16.8-14.8 30.4-33.1 30.4h-348C324.8 621 310 607.4 310 590.6v-384.3c0-16.8 15.4-28.2 33.7-28.8l226.5 0.6v-19zM392.9 358.6v16.9h106.5v51.1h-94.7v17h89.9L406.4 552.7l13 10.2 89.3-109.5 86.9 110.2 13.6-10.2-86.3-109.7h88.7v-17h-94.5v-51.1h106.5v-17H517.1V262h-17.7v96.6H392.9z m302.2-243.3c-62.7 0-112.9 48.9-112.9 108.5s50.3 108.6 112.9 108.6c62.1 0 112.4-48.9 112.9-108.5 0-60.3-50.3-108.6-112.9-108.6z"  horiz-adv-x="1024" />

    
    <glyph glyph-name="yifahuo1" unicode="&#58935;" d="M712.5 454.6c-15.3 0-27.7-12.4-27.7-27.7v-29.5c0-15.3 12.4-27.7 27.7-27.7h72.3c14.7 0 26.8 11.5 27.7 26l-44 58.9h-56zM376.7 273.9c-29.4 0-53.3-23.8-53.3-53.1s23.9-53.1 53.3-53.1 53.3 23.8 53.3 53.1c0 29.4-23.9 53.1-53.3 53.1zM355.5 380.1c64.6 0 117 52.3 117 116.8s-52.4 116.8-117 116.8-117-52.3-117-116.8c0-64.6 52.4-116.8 117-116.8zM284.2 503.5c4.1 4.1 10.9 4.1 15 0l45.1-45.1 0.5-0.5L417.9 531c4.1 4.1 10.9 4.1 15 0s4.1-10.9 0-15l-75.2-75.1c-4.1-4.1-10.9-4.1-15 0-0.3 0.3-0.5 0.5-0.7 0.8-4.1-2.3-9.3-1.8-12.8 1.7l-45.1 45.1c-4.1 4.1-4.1 10.9 0.1 15zM822.9 385.6V389l-1.3-1zM706.2 273.9c-28.1 0-51.1-21.9-53-49.6 0.1-1.1 0.3-2.2 0.4-3.3h-0.5v-0.2c0-29.3 23.8-53.1 53.1-53.1s53.1 23.8 53.1 53.1c-0.1 29.4-23.8 53.1-53.1 53.1zM581.5 825.2C335.4 862.1 107.8 696 70.9 450 34 204 200.1-23.7 446.2-60.6c246.1-36.9 473.7 129.2 510.6 375.3 36.8 246-129.3 473.6-375.3 510.5z m262.7-582.9v-21.2h-63.7v-0.2c0-41-33.3-74.3-74.3-74.3s-74.3 33.3-74.3 74.3v0.2h-74.5v5.4c-8.3-3.5-17.3-5.4-26.9-5.4h-79.3v-0.2c0-41-33.4-74.3-74.5-74.3-41.2 0-74.5 33.3-74.5 74.3v0.5c-35.6 2.9-63.7 32.7-63.7 69.1V423.3c-13.4 21.3-21.2 46.5-21.2 73.5 0 76.2 61.9 138 138.2 138 76.3 0 138.2-61.8 138.2-138s-61.9-138-138.2-138c-37.2 0-70.9 14.7-95.8 38.5v-113.4c0-23 18.6-41.6 41.6-41.6h4c9.2 30.6 37.7 52.9 71.3 52.9 33.7 0 62.1-22.3 71.3-52.9H537c23 0 41.6 18.6 41.6 41.6V519.1c0 23-18.6 41.6-41.6 41.6h-54c-3.1 7.4-6.9 14.5-11.2 21.2h58.7c36.4 0 66.2-28 69.1-63.7h148.8v-1.3l86.5-115.7c5.2-0.7 9.3-5.1 9.3-10.5v-148.4zM778.3 348.4h-59.4c-30.6 0-55.5 24.8-55.5 55.5v16.5c0 30.6 24.8 55.5 55.5 55.5h33.7L736.7 497H599.8v-206.6c0-18.7-7.4-35.6-19.4-48.1H635c9.2 30.6 37.6 52.9 71.2 52.9s61.9-22.3 71.1-52.9h45.6V371.2c-10-13.8-26.2-22.8-44.6-22.8z"  horiz-adv-x="1024" />

    
    <glyph glyph-name="yifukuan1" unicode="&#58949;" d="M655.68 335.68c7.52 0 15.2-0.8 22.56-2.4V574.24c0 35.68-28.8 64.48-64.48 64.48H336.32c-35.68 0-64.48-28.8-64.48-64.48v-348.32c0-35.68 28.8-64.48 64.48-64.48h230.88c-35.68 48.96-24.8 117.6 24.16 153.12 18.72 13.76 41.28 20.96 64.32 21.12z m-123.2 74.08v-23.36h-39.84v-17.76h39.84v-23.36h-39.84v-32.32h-36v32.32h-41.44v23.36h41.28v17.76h-41.28v23.36h33.12l-44 77.92h38.72c17.28-36 28.32-59.84 32.96-71.52h0.8c0.64 1.6 1.28 3.84 2.08 6.4 1.44 4 6.88 15.84 16.32 35.36l14.08 29.76h36.48L500.32 409.6h32.16z m122.88-87.04c-53.44 0-96.8-43.36-96.8-96.8s43.36-96.8 96.8-96.8 96.8 43.36 96.8 96.8-43.36 96.8-96.8 96.8z m-9.28-144.48c-7.52-7.52-19.84-7.52-27.36 0L581.12 216c-2.24 2.72-2.08 6.72 0.64 9.12 2.4 2.08 5.92 2.08 8.32 0l37.92-37.76c2.56-2.56 6.56-2.56 9.12 0l83.2 83.52c2.56 2.56 6.72 2.4 9.28-0.16 2.56-2.56 2.4-6.72-0.16-9.28l-83.36-83.2zM1024 384c0-282.72-229.28-512-512-512S0 101.28 0 384 229.28 896 512 896s512-229.28 512-512z"  horiz-adv-x="1024" />

    
    <glyph glyph-name="weixin1" unicode="&#58906;" d="M512-49.2c-246.9 0-447.7 200.8-447.7 447.7 0.1 246.8 200.9 447.6 447.7 447.6 246.8 0 447.7-200.8 447.7-447.7 0-246.8-200.8-447.6-447.7-447.6zM512 828.9c-237.4 0-430.4-193.1-430.4-430.4-0-237.4 193.1-430.5 430.4-430.5 237.3 0 430.4 193.1 430.4 430.4 0.1 237.4-193 430.5-430.4 430.5zM614.5 464.3c7 0 14-0.5 20.8-1.3-18.7 87.1-111.8 151.7-217.9 151.7-118.7 0-216-80.9-216-183.7 0-59.2 32.4-108 86.4-145.8l-21.6-65 75.5 37.9c27-5.3 48.6-10.8 75.7-10.8 6.7 0 13.5 0.3 20.1 0.9-4.2 14.5-6.6 29.6-6.6 45.2 0 94.3 81 170.9 183.6 170.9zM498.4 522.8c16.2 0 27-10.7 27-26.9s-10.8-27-27-27-32.5 10.8-32.5 27c0 16.3 16.3 26.9 32.5 26.9zM347.2 468.9c-16.2 0-32.6 10.8-32.6 27 0 16.3 16.4 26.9 32.6 26.9 16.2 0 26.9-10.7 26.9-26.9s-10.7-27-26.9-27zM811.6 295.9c0 86.4-86.4 156.8-183.4 156.8-102.8 0-183.8-70.4-183.8-156.8 0-86.5 81-156.7 183.8-156.7 21.5 0 43.1 5.4 64.8 10.8l59.3-32.5-16.3 54c43.4 32.6 75.6 75.7 75.6 124.4zM568.6 323c-10.8 0-21.6 10.7-21.6 21.6 0 10.8 10.9 21.6 21.6 21.6 16.3 0 27-10.8 27-21.6 0-10.9-10.7-21.6-27-21.6zM687.4 323c-10.7 0-21.4 10.7-21.4 21.6 0 10.8 10.8 21.6 21.4 21.6 16.2 0 27.1-10.8 27.1-21.6 0-10.9-10.9-21.6-27.1-21.6z"  horiz-adv-x="1024" />

    
    <glyph glyph-name="yitixian" unicode="&#58928;" d="M649.4 331.3H548.5v21.6h100.9c11.4 0 20.6 9.2 20.6 20.6 0 11.4-9.2 20.6-20.6 20.6H548.5v5l104.8 104.5c8.1 8.1 8.1 21.1 0 29.2-8 8.1-21.1 8.1-29.2 0l-96.3-96-96.3 96c-8.1 8-21.1 8.1-29.2 0-8.1-8.1-8.1-21.2 0-29.2l104.9-104.3v-5H406.3c-11.4 0-20.6-9.2-20.6-20.6 0-11.4 9.2-20.6 20.6-20.6h100.9V331.5H406.3c-11.4 0-20.6-9.2-20.6-20.6s9.2-20.6 20.6-20.6h100.9V220.5c0-11.4 9.2-20.6 20.6-20.6s20.6 9.2 20.6 20.6v69.5h100.9c11.4 0 20.6 9.2 20.6 20.6s-9.1 20.7-20.5 20.7zM839.1 494c-3.6 10.8-15.4 16.6-26.1 13-10.8-3.6-16.7-15.3-13-26.1 10.4-31 15.7-63.5 15.7-96.4 0-167.2-136-303.1-303.1-303.1-167.2 0-303.2 136-303.2 303.1 0 167.1 136 303.1 303.2 303.1 63.8 0 125.3-19.9 176.6-56.7l-41.7-4.3c-11.3-1.2-19.6-11.3-18.4-22.7 1.1-10.6 10.1-18.5 20.5-18.5 0.7 0 1.4 0 2.1 0.1l87.9 9.1c5.5 0.6 10.4 3.3 13.9 7.5 3.4 4.3 5.1 9.7 4.5 15.2l-9.1 87.9c-1.2 11.3-11.2 19.8-22.7 18.4-11.4-1.2-19.6-11.3-18.4-22.7l3.7-35.2c-57.8 41-127.1 63.2-198.8 63.2C322.5 728.9 168 574.4 168 384.5c0-189.9 154.5-344.4 344.5-344.4 189.9 0 344.4 154.5 344.4 344.4 0 37.4-6 74.3-17.8 109.5z"  horiz-adv-x="1024" />

    
    <glyph glyph-name="zhifubao1" unicode="&#58971;" d="M191.93344 203.29471999999998c0 69.49888 50.9696 106.56768 88.03328 111.2064 111.20128 18.5344 264.11008-74.13248 264.11008-74.13248-69.504-88.0384-166.8096-134.36928-240.94208-134.36928-64.86528 4.62336-111.20128 41.69728-111.20128 97.29536z m787.69664-37.0688c-13.90592 4.63872-328.98048 101.9392-319.71328 111.21152 46.336 55.59808 78.7712 185.33888 78.7712 185.33888v27.8016h-185.33888V560.07168h227.0464v41.7024h-227.0464v101.9392h-92.672v-97.3056H256.80384v-41.7024h203.87328V495.2064H298.50624v-27.8016h333.60896c0-13.9008-23.16288-106.56768-46.336-148.27008-4.62848 9.2672-152.90368 60.2368-236.30848 64.86528-88.03328-4.6336-157.53728-32.4352-189.97248-97.3056-46.336-120.46848 27.8016-240.94208 194.60608-240.94208 27.8016 0 162.17088 13.9008 264.11008 152.9088 27.8016-13.9008 185.33376-92.672 282.64448-143.6416-92.672-111.20128-231.68-180.7104-389.21728-180.7104A508.2112 508.2112 0 0 0 1.96096 383.99487999999997 508.2112 508.2112 0 0 0 511.6416 893.67552a508.2112 508.2112 0 0 0 509.68576-509.68064c4.6336-83.39968-13.89568-152.89856-41.69728-217.76896z"  horiz-adv-x="1024" />

    
    <glyph glyph-name="huoban2" unicode="&#58972;" d="M79.459-26.074H42.092c-10.327 0-18.697 8.371-18.697 18.697V29.2c-1.016 13.925-0.81 58.806 36.174 105.562 16.13 20.393 36.875 37.796 61.658 51.727 28.084 15.785 61.462 27.116 99.205 33.679 0.226 0.039 0.452 0.073 0.679 0.105 41.398 5.642 75.742 15.87 90.411 22.227-0.129 3.746-0.412 8.74-0.977 15.241-4.185 47.316-28.474 74.875-51.964 101.526-9.146 10.375-17.228 19.701-23.566 28.85-30.043 43.377-33.137 91.245-33.392 96.56a18.578 18.578 0 0 0-0.021 0.86c-0.03 17.021 4.438 31.579 13.612 44.227-5.267 36.305-5.284 84.581 0.167 118.91 3.586 53.38 43.309 92.47 52.263 100.638-0.963 7.143-0.769 14.247 0.586 21.229 3.437 18.053 17.446 48.862 72.5 51.626 3.037 0.162 5.68 0.317 8.08 0.458l2.685 0.156c10.305 0.59 19.147-7.282 19.741-17.591 0.594-10.309-7.283-19.146-17.592-19.74l-2.643-0.154c-2.46-0.145-5.173-0.303-8.34-0.472-33.97-1.706-36.686-15.973-37.709-21.344-0.96-4.948-0.606-9.719 1.101-15.078a18.697 18.697 0 0 0-4.645-18.95c-2.754-2.731-5.81-5.388-7.906-7.177-2.349-2.069-38.373-34.49-40.852-76.773-0.038-0.64-0.107-1.278-0.21-1.912-5.37-32.964-4.95-82.773 0.977-115.862a18.696 18.696 0 0 0-4.717-16.032c-4.48-4.814-9.612-12.072-9.7-25.643 0.277-4.6 3.251-42.707 26.757-76.645 5.186-7.488 12.52-15.936 20.87-25.408 24.911-28.264 55.902-63.426 61.17-122.996 1.48-17.055 1.346-26.192 0.973-30.857a18.691 18.691 0 0 0-6.772-12.96c-17.197-14.12-72.254-27.992-115.487-33.918-61.419-10.736-108.997-35.527-137.612-71.704-23.242-29.384-29.792-60.638-28.173-80.088 0.043-0.517 0.065-1.034 0.065-1.552v-18.606h18.67c10.327 0 18.698-8.37 18.698-18.697s-8.374-18.695-18.7-18.695zM751.1-80.38a18.61 18.61 0 0 0-10.242 3.067c-33.198 21.788-87.573 23.946-91.09 24.062h-20.834l-33.277-0.253h-437.24c-10.326 0-18.697 8.37-18.697 18.696v21.183c-0.304 6.118-0.801 38.72 19.966 74.446 13.028 22.414 31.746 41.655 55.635 57.189 28.897 18.79 65.478 32.13 108.727 39.648 0.234 0.04 0.467 0.076 0.701 0.107 0.32 0.043 32.66 4.47 65.87 13.13 57.783 15.068 63.97 28.62 64.015 28.753a18.53 18.53 0 0 0 1.49 3.926c0.47 2.66 1.565 12.262-0.65 37.357-5.726 64.899-39.587 103.312-66.795 134.179-8.635 9.796-16.792 19.05-23.093 28.15-27.196 39.285-29.722 83.97-29.816 85.852a18.976 18.976 0 0 0-0.023 0.934c0 18.188 9.413 26.868 16.976 33.843l0.409 0.378c0.065 0.06 0.124 0.115 0.174 0.165-0.033 1.352-0.57 4.122-0.94 6.033a250.51 250.51 0 0 0-0.476 2.493c-6.79 36.864-7.256 93.8-1.121 130.379 2.329 48.357 43.966 85.326 45.754 86.89 0.07 0.061 0.141 0.123 0.213 0.183 5.873 4.985 11.824 10.421 15.572 16.402 0.31 0.493 0.552 0.903 0.74 1.242-0.258 0.634-0.575 1.365-0.839 1.975-2.208 5.092-5.904 13.612-3.866 24.232 1.24 6.46 5.944 17.998 23.518 22.687 6.958 1.856 14.346 2.233 19.74 2.51l1.067 0.055c21.166 1.114 43.743 2.057 66.603 0.303 165.31-12.674 222.383-74.592 224.732-77.222 0.14-0.155 0.275-0.313 0.407-0.473 13.301-15.931 23.152-35.77 29.276-58.965 1.907-7.215 3.135-13.288 3.854-19.056 5.78-33.594 4.813-68.038 3.578-91.067-0.69-12.921-2.131-26.5-4.537-42.724-0.176-1.183-0.517-4.005 0.103-4.746 0.696-0.832 1.562-1.752 2.48-2.725 3.714-3.942 8.802-9.34 11.527-18.065 1.366-4.384 2-9.06 2-14.728 0-0.31-0.007-0.623-0.022-0.934-0.094-1.883-2.62-46.568-29.817-85.852-6.3-9.1-14.456-18.352-23.09-28.147-27.21-30.866-61.073-69.281-66.799-134.181-2.222-25.174-1.111-34.758-0.643-37.382a18.72 18.72 0 0 0 1.5-3.95c0.031-0.084 6.242-13.684 64.303-28.782 33.204-8.635 65.248-13.009 65.567-13.052 0.304-0.04 0.607-0.089 0.91-0.145 43.637-8.093 80.438-21.772 109.384-40.659 23.97-15.64 42.654-34.845 55.532-57.083 20.374-35.18 19.614-67.073 19.201-73.637v-21.048c0-10.327-8.37-18.697-18.696-18.697H851.112c-1.052 0-2.082 0.087-3.087 0.253h-27.34c-10.326 0-18.696 8.371-18.696 18.697s8.37 18.697 18.696 18.697h49.16c1.052 0 2.082-0.087 3.087-0.254h78.39v3.013c0 0.692 0.008 1.1 0.082 1.767 0.102 1.531 1.449 26.553-15.349 54.329-10.139 16.766-24.914 31.42-43.913 43.557-24.5 15.649-56.103 27.162-93.939 34.22-4.496 0.623-36.927 5.276-70.95 14.234-52.427 13.802-80.762 30.344-88.582 51.829-3.877 7.53-6.049 22.343-2.958 57.38 6.806 77.13 46.796 122.495 75.997 155.62 8.233 9.34 15.343 17.405 20.398 24.705 19.694 28.447 22.877 62.088 23.187 66.052-0.032 2.02-0.234 2.83-0.3 3.04-0.153 0.49-1.963 2.41-3.045 3.558-1.192 1.266-2.544 2.7-3.952 4.384-7.707 9.218-10.456 20.412-8.404 34.222 2.23 15.035 3.56 27.503 4.185 39.232 1.144 21.323 2.06 53.137-3.161 83.135a17.933 17.933 0 0 0-0.145 0.988c-0.496 4.148-1.429 8.74-2.94 14.45-4.662 17.653-11.887 32.497-21.48 44.133-1.661 1.69-14.524 14.214-43.126 27.836-28.492 13.57-78.774 30.998-156.517 36.958-20.633 1.584-41.833 0.69-61.779-0.362l-1.122-0.057c-1.356-0.07-3.489-0.178-5.667-0.362 2.233-5.617 4.514-13.617 1.662-23.107-1.502-4.996-3.865-9.067-5.513-11.696-6.423-10.245-15.165-18.34-22.898-24.912-1.48-1.337-31.957-29.29-33.004-61.275a18.7 18.7 0 0 0-0.267-2.594c-5.617-32.275-5.239-85.405 0.845-118.437 0.132-0.718 0.271-1.43 0.408-2.142 1.786-9.202 5.11-26.329-10.586-40.805l-0.415-0.383c-1.875-1.728-4.188-3.861-4.83-4.782a7.754 7.754 0 0 1-0.094-1.072c0.325-4.18 3.491-37.558 23.184-66.003 5.054-7.3 12.165-15.368 20.398-24.708 29.2-33.125 69.188-78.491 75.992-155.618 3.093-35.036 0.923-49.849-2.954-57.38-7.82-21.485-36.155-38.026-88.582-51.828-34.32-9.036-67.018-13.69-71.062-14.25-38.09-6.655-69.856-18.126-94.418-34.097-18.934-12.311-33.634-27.328-43.692-44.632-16.477-28.346-14.981-53.38-14.962-53.624 0.041-0.5 0.06-1.002 0.06-1.504v-3.013h418.342l33.277 0.254h21.302c0.142 0 0.281 0 0.422-0.004 2.746-0.063 67.727-1.844 110.919-30.188 8.633-5.665 11.038-17.256 5.373-25.89-3.592-5.469-9.562-8.44-15.65-8.44z m-83.667 289.922z"  horiz-adv-x="1024" />

    
    <glyph glyph-name="xuanze" unicode="&#59007;" d="M512 896C229.12 896 0 666.88 0 384s229.12-512 512-512 512 229.12 512 512S794.88 896 512 896z m0-985.6C250.88-89.6 38.4 122.88 38.4 384S250.88 857.6 512 857.6s473.6-212.48 473.6-473.6-212.48-473.6-473.6-473.6zM755.2 572.16l-320-320-166.4 166.4c-10.24 10.24-26.88 10.24-37.12 0-5.12-5.12-7.68-11.52-7.68-17.92 0-6.4 2.56-14.08 7.68-17.92l184.32-184.32c5.12-5.12 11.52-7.68 17.92-7.68s14.08 2.56 17.92 7.68L791.04 537.6c5.12 5.12 7.68 11.52 7.68 17.92s-2.56 14.08-7.68 17.92c-8.96 8.96-25.6 8.96-35.84-1.28z"  horiz-adv-x="1024" />

    
    <glyph glyph-name="ccgl-tuihuoguanli-8-copy" unicode="&#59272;" d="M489.693 480.101h148.465v-46.822h-148.465v46.822zM511.731 818.699c-235.425 0-426.272-190.845-426.272-426.27s190.847-426.274 426.272-426.274c235.423 0 426.272 190.849 426.272 426.274-0.001 235.425-190.85 426.27-426.272 426.27zM684.668 405.111l18.778-24.628-4.498-2.785c-24.112-14.926-47.955-29.167-70.982-42.4 11.631-7.355 27.371-17.336 46.939-29.767 10.895-6.898 19.483-12.293 25.522-16.030l4.533-2.805-21.259-27.458-3.739 2.577c-57.721 39.787-110.836 74.722-157.867 103.838l-4.723 2.924 19.762 23.468 3.52-2.159c8.734-5.357 21.347-13.104 37.832-23.248 9.169-5.792 16.405-10.311 21.6-13.488 33.182 19.796 60.375 36.47 80.857 49.578l3.725 2.383zM447.965 272.6c6.801 7.43 9.983 16.357 9.73 27.289l-0.001 0.112v285.216h212.041v-181.4h-180.042v-110.286c29.326 12.527 54.822 23.63 75.865 33.039l6.277 2.807 0.472-6.861c0.545-7.929 1.584-15.758 3.087-23.265l0.809-4.040-3.87-1.412c-27.906-10.187-55.355-21.646-81.583-34.063-5.756-2.743-13.147-6.859-21.955-12.228l-3.535-2.155-20.126 24.152 2.832 3.093zM353.975 594.988l2.633-3.382c16.327-20.978 34.298-45.652 53.413-73.337l2.859-4.143-28.976-18.037-2.566 3.943c-19.014 29.217-36.297 54.151-51.368 74.108l-3.192 4.227 27.197 16.621zM719.601 224.059c-3.23-7.13-5.752-14.84-7.499-22.913l-0.821-3.796-3.884 0.011c-97.028 0.282-170.923 1.349-219.635 3.17-51.969 0.019-91.581 16.632-117.843 49.395-15.544-18.073-29.992-36.343-42.999-54.376l-3.099-4.298-25.664 22.68 3.033 3.586c18.79 22.219 37.028 42.779 54.231 61.138v143.757h-51.561v31.365h83.771v-178.961c22.935-28.901 57.921-43.554 104.015-43.555l0.705 0.001 0.072-0.002c25.747-0.698 62.89-1.125 110.402-1.267 8.257-0.023 16.177-0.035 23.752-0.035 38.082 0 67.865 0.295 88.519 0.878l7.676 0.217-3.17-6.996zM489.693 555.752h148.465v-46.61h-148.465v46.61z"  horiz-adv-x="1024" />

    
    <glyph glyph-name="zhifubao" unicode="&#58941;" d="M896 245.333333l-247.04 83.072s18.986667 28.416 39.253333 84.138667c20.266667 55.722667 23.168 86.314667 23.168 86.314667l-159.914666 1.322666v54.613334l193.664 1.365333V594.773333h-193.706667V682.666667h-94.848v-87.893334H275.882667v-38.613333l180.693333 1.28v-58.581333H311.637333v-30.592h298.325334s-3.285333-24.832-14.72-55.722667c-11.434667-30.890667-23.210667-57.941333-23.210667-57.941333s-140.074667 49.024-213.888 49.024-163.584-29.653333-172.288-115.712c-8.661333-86.016 41.813333-132.608 112.938667-149.76 71.125333-17.237333 136.789333 0.170667 193.962666 28.16 57.173333 27.946667 113.28 91.477333 113.28 91.477333l287.914667-139.818667A142.08 142.08 0 0 0 753.792 0H270.208A142.08 142.08 0 0 0 128 142.208V625.792A142.08 142.08 0 0 0 270.208 768h483.584A142.08 142.08 0 0 0 896 625.792v-380.458667z m-359.68 48s-88.789333-108.117333-193.408-108.117333c-104.661333 0-126.634667 51.370667-126.634667 88.32 0 36.906667 21.76 77.056 110.805334 82.858667 89.002667 5.802667 209.28-63.061333 209.28-63.061334z"  horiz-adv-x="1024" />

    
    <glyph glyph-name="gouwuche" unicode="&#58887;" d="M1433.796 238.88h-412.293c-9.61 0-17.86 6.867-19.589 16.319l-81.254 441.851h-90.982c-11.002 0-19.923 8.92-19.923 19.924 0 11 8.92 19.92 19.923 19.92h107.576c9.611 0 17.856-6.868 19.588-16.32l81.26-441.858h395.7c11 0 19.92-8.914 19.92-19.918-0.004-10.994-8.924-19.917-19.925-19.917zM1408.178 336.531h-400.332c-10.999 0-19.918 8.923-19.918 19.927 0 11 8.92 19.92 19.918 19.92h386.412l79.874 217.993h-431.852c-11 0-19.919 8.919-19.919 19.922 0 11 8.918 19.92 19.919 19.92h460.362c6.509 0 12.603-3.179 16.33-8.509 2.245-3.181 3.588-7.139 3.588-11.41 0-2.462-0.446-4.82-1.263-6.997l-94.421-257.697c-2.877-7.69-10.161-13.066-18.702-13.069zM1050.782 29.753c-43.644 0-79.158 35.524-79.158 79.177 0 43.633 35.514 79.13 79.158 79.13s79.156-35.497 79.156-79.13c-0.005-43.653-35.512-79.177-79.156-79.177zM1050.782 148.223c-21.68 0-39.316-17.622-39.316-39.294 0-21.695 17.638-39.336 39.316-39.336 21.677 0 39.314 17.64 39.314 39.336 0 21.672-17.637 39.294-39.314 39.294zM1395.377 29.753c-43.643 0-79.156 35.524-79.156 79.177 0 43.633 35.513 79.13 79.156 79.13 43.653 0 79.175-35.497 79.175-79.13-0.001-43.653-35.524-79.177-79.175-79.177zM1395.377 148.223c-21.68 0-39.316-17.622-39.316-39.294 0-21.695 17.636-39.336 39.316-39.336 21.693 0 39.333 17.64 39.333 39.336 0 21.672-17.645 39.294-39.333 39.294zM1395.377 148.223z"  horiz-adv-x="2336" />

    
    <glyph glyph-name="fensi2" unicode="&#58930;" d="M506.610526 414.540351a240.729825 240.729825 0 1 0 0 481.459649 240.729825 240.729825 0 0 0 0-481.459649z m0 434.750877c-104.196491 0-190.42807-86.231579-190.42807-190.42807s86.231579-190.42807 190.42807-190.42807S697.038596 554.666667 697.038596 658.863158s-86.231579 190.42807-190.42807 190.42807zM86.231579-99.25614v39.522807c0 233.54386 190.42807 423.97193 423.97193 423.971929 86.231579 0 172.463158-25.150877 244.322807-75.452631l-28.74386-39.522807c-64.673684 43.115789-136.533333 68.266667-215.578947 68.266667-204.8 0-373.670175-165.277193-373.670176-373.670176v-32.336842l-50.301754-10.778947zM653.922807 40.870175h283.845614v-50.301754h-283.845614zM768.898246 155.845614h50.301754v-283.845614H768.898246z"  horiz-adv-x="1024" />

    
    <glyph glyph-name="tuiguangfeijiesuanicon" unicode="&#59103;" d="M967.111111 554.666667H56.888889c-34.133333 0-56.888889-22.755556-56.888889-56.888889v-568.888889c0-28.444444 22.755556-56.888889 56.888889-56.888889h910.222222c28.444444 0 56.888889 22.755556 56.888889 56.888889V497.777778c0 28.444444-22.755556 56.888889-56.888889 56.888889z m0-625.777778H56.888889V497.777778h910.222222v-568.888889zM631.466667 696.888889l-28.444445 34.133333-352.711111-125.155555-56.888889-51.2H284.444444l517.688889 187.733333L870.4 554.666667h62.577778L853.333333 759.466667c-11.377778 28.444444-45.511111 45.511111-73.955555 34.133333l-119.466667-45.511111 28.444445-34.133333-56.888889-17.066667zM250.311111 605.866667l267.377778 227.555555 79.644444-96.711111 56.888889 22.755556-96.711111 113.777777c-22.755556 22.755556-56.888889 28.444444-79.644444 5.688889L102.4 554.666667H113.777778l136.533333 51.2zM631.466667 696.888889l56.888889 17.066667-28.444445 39.822222-56.888889-22.755556zM113.777778 554.666667h79.644444l56.888889 51.2zM568.888889 213.333333h170.666667V270.222222h-153.6l-17.066667-17.066666zM512 258.844444l-11.377778 11.377778H341.333333v-56.888889h170.666667zM512 270.222222h73.955556l73.955555 79.644445-39.822222 39.822222-79.644445-79.644445-39.822222-39.822222zM540.444444 310.044444l-79.644444 79.644445-39.822222-39.822222L500.622222 270.222222zM568.888889 253.155556l17.066667 17.066666H568.888889zM500.622222 270.222222l11.377778-11.377778V270.222222zM500.622222 270.222222zM398.222222 156.444444h113.777778v-56.888888H398.222222zM568.888889 156.444444h113.777778v-56.888888h-113.777778zM512 213.333333h56.888889v-56.888889h-56.888889zM512 99.555556h56.888889v-113.777778h-56.888889zM540.444444 230.4l-28.444444 28.444444V213.333333h56.888889v39.822223zM568.888889 253.155556V270.222222h-56.888889v-11.377778l28.444444-28.444444zM512 156.444444h56.888889v-56.888888h-56.888889z"  horiz-adv-x="1024" />

    
    <glyph glyph-name="shoucang1" unicode="&#59006;" d="M511.98464 61.14816l-316.43648-166.29248 60.44672 352.27648L0 496.7424l353.81248 51.42528L511.98464 868.72064l158.1824-320.55296L1024 496.7424l-256.02048-249.58976 60.35968-352.29696-316.35456 166.29248z m196.44928-1.3056l-37.48352 218.86976 158.98624 154.96192-219.66848 31.9232L511.98464 664.7296 413.76256 465.59744l-219.71968-31.9232 158.97088-154.9568-37.54496-218.87488 196.51584 103.31136 196.44928-103.31136z"  horiz-adv-x="1024" />

    
    <glyph glyph-name="icon_jintie" unicode="&#58897;" d="M576.6 354.8l-0.9 0.1h-42.2v25.9h43.2c9.1 0.1 16.6 7.5 16.6 16.5 0 9.1-7.5 16.5-16.7 16.6h-0.9l-39.5 0.1-3.1 0.9 0.5 2.8 0.5 2.4 47.1 47.8c6 6.8 3.3 11.9-3.8 19.1-3.7 3.7-8.9 6-13.8 6-3.5 0-6.4-1.2-8.4-3.3l-42.5-45-45.8 45.5c-1.5 1.5-3.6 2.3-6.1 2.3-4.4 0-9.4-2.3-13.3-6.2-6.5-6.4-8.3-15.1-4-19.3l46.5-46.2-1.7-2.2c-0.5-0.7-0.9-1.5-1.1-2.3l-0.6-2.4H447.9c-9.2 0-16.7-7.4-16.7-16.6 0-9.1 7.5-16.6 16.8-16.6H490.8v-25.9h-40v-0.1h-2.9c-9.2 0-16.7-7.4-16.7-16.6 0-9.1 7.5-16.5 16.7-16.5h42.9v-19.8h1.1l-0.8-3.8c-0.3-1.4-0.4-2.8-0.4-4.2 0-11.9 9.7-21.5 21.6-21.5 11.9 0 21.6 9.6 21.6 21.5 0 1.4-0.2 2.8-0.5 4.5V300l0.2 0.9v20.7h43.2c9.1 0.1 16.6 7.5 16.6 16.6-0.1 9.1-7.6 16.5-16.8 16.6zM512 830.6c-247.4 0-448-200.6-448-448s200.6-448 448-448 448 200.6 448 448-200.5 448-448 448z m242.9-362.7c-8.6-90-38.7-171.5-97.5-241.5-36-42.8-79.8-75.6-131-98.6-9.7-4.4-19.4-4.1-29.1 0.3-46.3 20.8-86.6 50-120.8 87.4-44.5 48.7-74.2 105.4-91.9 168.5-11.6 42-17.1 84.7-17.6 128.2 0.7 12.4 1 24.9 2 37.3 1.2 15.5 14.2 27.9 29.8 28.9 13.8 0.9 27.7 1.1 41.5 2.6 55 5.9 105.9 23.9 152.5 53.4 9.5 6 19.3 7.9 29.9 4.4 2.8-1 5.6-2.4 8.1-4 41.6-26.4 86.8-43.5 135.4-51.5 18.4-3 37-4.4 55.6-4.7 19.7-0.3 32.5-13.1 33.9-32.7 2-26.1 1.7-52.1-0.8-78z"  horiz-adv-x="1024" />

    
    <glyph glyph-name="juxingkaobei" unicode="&#58962;" d="M864-128h-448c-79.242 0.104-144.945 57.935-157.319 133.69-55.865 13.83-103.225 53.894-119.097 111.302l-133.824 483.776c-23.104 83.52 28.096 169.28 114.24 191.68l374.528 97.216c86.208 22.4 174.784-27.2 197.888-110.656l3.008-11.008h168.576c88.366 0 160-71.634 160-160v-576c0-88.366-71.634-160-160-160zM160.96 523.584l95.040-343.68v297.28c-33.088 10.752-61.312 28.224-95.040 46.4v0zM184.704 679.616c-15.168-4.364-27.677-13.834-35.84-26.39 27.904-21.162 60.608-47.658 107.136-59.754v14.528c0 37.76 13.632 72 35.456 99.328l-106.752-27.712zM832 640h-384c-19.993-0.238-37.717-9.746-49.104-24.419 24.208-63.261 71.824-162.717 241.744-167.197l6.656-0.064c163.776 0 211.264 102.4 234.048 166.912-11.547 15.009-29.464 24.626-49.633 24.771zM896 576v-141.568c-66.752-60.928-102.528-113.92-248.384-113.92l-9.536 0.064c-149.76 0.896-186.816 52.928-254.080 112.832v-369.408c0-35.346 28.654-64 64-64h384c35.346 0 64 28.654 64 64v512z"  horiz-adv-x="1024" />

    
    <glyph glyph-name="dakuanjilu" unicode="&#58917;" d="M831.616 832H128.384C57.408 832 0 774.784 0 704.192V448h64v1.344l134.4 134.4-45.248 45.248L64 539.904V703.808C64 739.264 93.184 768 128.128 768h703.68C867.264 768 896 739.968 896 703.808V448h64V704.192C960 774.656 902.528 832 831.616 832zM896 254.656l-134.4-134.4 45.248-45.248L896 164.096v-163.968C896-35.264 866.816-64 831.872-64h-703.68C92.736-64 64-35.968 64 0.192V256H0v-256.192C0-70.656 57.472-128 128.384-128h703.232C902.592-128 960-70.784 960-0.192V256h-64v-1.344zM512 544a0.5 0.5 0 1 1 64 0 0.5 0.5 0 1 1-64 0zM320 320v-64h128v-192h64V256h128v64H512v64h128v64H525.248l-160 160L320 562.752 434.752 448H320v-64h128v-64z"  horiz-adv-x="1024" />

    
    <glyph glyph-name="icon-test" unicode="&#58924;" d="M391.2 276.2c-14.3-7.1-31.9-2.2-39.6 12.1l-2.2 4.4-81.3 178.5c-1.1 2.2-1.6 3.8-1.6 6 0 8.2 6.6 14.8 14.8 14.8 3.3 0 6.6-1.1 8.8-2.7l96.1-68.1c11.5-7.7 26.4-9.3 39.6-4.4l452.7 201.1c-81.3 95.6-214.8 157.7-365.9 157.7C266 776.1 65.5 609.1 65.5 403.1c0-112.1 60.4-213.7 154.4-281.8 7.7-5.5 12.6-14.8 12.6-24.2 0-3.3-0.5-6.6-1.6-9.9L210.5 12c-1.1-3.3-2.2-7.1-2.2-11 0-8.2 6.6-14.8 14.8-14.8 3.3 0 6 1.1 8.8 2.7l97.8 56.6c7.1 4.4 15.4 6.6 23.6 7.1 4.4 0 8.8-0.5 13.2-2.2 47.8-13.7 96.7-20.3 146.1-20.3 247.2 0 447.7 167 447.7 373 0 61.5-18.1 121.4-51.1 173L394 278.4l-2.8-2.2z"  horiz-adv-x="1024" />

    
    <glyph glyph-name="dizhi" unicode="&#58934;" d="M514.412-60.645c-9.603 0.003-18.075 4.846-23.109 12.219l-263.751 391.039c-32.146 51.163-48.878 109.019-48.878 168.107 0 178.198 150.507 323.24 335.468 323.24 185.007 0 335.533-145.041 335.533-323.24 0-59.019-16.666-116.807-48.23-167.091l-263.83-391.96c-5.081-7.47-13.544-12.311-23.136-12.311-0.023 0-0.046 0-0.069 0zM514.139 778.084c-154.12 0-279.58-119.958-279.58-267.367 0-48.603 13.789-96.143 39.836-137.535l240.013-355.857 240.149 356.804c25.472 40.58 39.157 88.066 39.157 136.588 0.002 147.41-125.391 267.367-279.576 267.367zM514.139 358.143c-87.626 0-158.946 68.947-158.946 153.778 0 84.748 71.319 153.797 158.946 153.797 87.659 0 158.993-69.048 158.993-153.797 0.002-84.831-71.334-153.778-158.993-153.778zM514.139 609.725c-56.772 0-103.039-43.895-103.039-97.804 0-53.99 46.267-97.891 103.038-97.891 56.836 0 103.039 43.902 103.039 97.891 0 53.908-46.204 97.804-103.039 97.804z"  horiz-adv-x="1024" />

    
    <glyph glyph-name="vip" unicode="&#58896;" d="M478.464 296.192S617.344 276.48 666.752 535.936C691.584 666.496 623.872 775.68 478.464 775.68 329.088 775.68 259.84 666.496 285.568 535.936 336.128 276.48 478.464 296.192 478.464 296.192m107.776-61.44c0 4.608 0.384 9.088 0.768 13.696-31.488 3.072-66.56 5.248-106.624 5.248-148.608 0-235.776-26.496-281.984-46.336-41.216-17.408-70.4-40.576-70.4-103.936V37.12h592.384c-79.36 32.64-134.144 108.928-134.144 197.632m187.904-14.848c6.272 7.552 12.8 14.464 19.84 20.48 6.272 4.992 12.8 9.472 20.608 13.696 7.808 4.224 15.616 5.632 23.68 5.248 11.648-0.768 21.376-3.84 29.184-7.936 7.808-4.608 13.952-10.24 18.688-17.024 4.608-6.784 7.808-14.848 9.344-23.552 1.536-8.704 2.304-17.792 1.536-26.88-0.384-9.088-2.304-17.792-5.12-26.112-2.688-8.32-6.272-16.256-10.112-23.552-3.84-7.168-8.576-14.08-13.568-20.096-5.12-6.016-9.728-11.776-14.72-16.64-7.424-7.552-15.616-14.464-23.68-21.248-8.192-6.4-16-12.16-23.296-16.64-7.424-4.608-14.336-8.32-20.224-11.008-6.272-2.688-10.88-4.224-14.336-4.224-3.84 0-8.576 1.152-14.336 3.84-5.888 2.688-12.416 6.4-19.072 11.008-7.04 4.608-14.336 10.24-22.144 16.64-7.808 6.4-15.616 13.312-22.912 20.48-5.12 4.608-10.112 9.856-16 15.872s-10.88 12.928-16 20.096-9.344 15.232-12.8 23.552c-3.456 8.32-5.504 17.408-5.888 26.88-0.384 9.472 0.768 18.56 3.072 26.88 2.304 8.32 6.272 15.872 10.88 22.4 5.12 6.4 10.88 12.16 18.304 16.64 7.04 4.608 15.232 7.552 24.448 9.472 4.608 0.768 8.96 1.152 13.568 0.384 4.608-0.768 8.96-1.92 13.184-3.456 4.224-1.536 8.576-3.456 12.416-6.016 3.84-2.304 7.808-4.992 11.264-7.552 8.96-6.016 16.768-13.184 24.192-21.632"  horiz-adv-x="1024" />

    
    <glyph glyph-name="huoban3" unicode="&#58950;" d="M723.968 514.56c72.704 0 132.096 59.392 132.096 132.096 0 72.704-59.392 132.096-132.096 132.096s-132.096-59.392-132.096-132.096c0-73.216 59.392-132.096 132.096-132.096z m0 228.864c53.248 0 96.768-43.52 96.768-96.768 0-53.248-43.52-96.768-96.768-96.768s-96.768 43.52-96.768 96.768c0 53.248 43.52 96.768 96.768 96.768zM300.032 517.632c72.704 0 132.096 59.392 132.096 132.096s-59.392 132.096-132.096 132.096c-72.704 0-132.096-59.392-132.096-132.096s59.392-132.096 132.096-132.096z m0 228.864c53.248 0 96.768-43.52 96.768-96.768 0-53.248-43.52-96.768-96.768-96.768-53.248 0-96.768 43.52-96.768 96.768 0 53.248 43.52 96.768 96.768 96.768zM723.968 506.88c-40.448 0-79.36-12.288-113.152-35.84-24.064 27.136-59.392 44.544-98.816 44.544-38.4 0-72.704-16.384-96.768-42.496-34.304 24.064-73.728 36.864-115.2 36.864-111.616 0-202.752-91.136-202.752-202.752v-114.688c0-111.616 91.136-202.752 202.752-202.752 9.216 0 17.92 1.024 29.184 3.072 8.704 1.024 14.848 8.704 14.848 17.408v31.232c0 81.92 61.44 153.088 143.36 164.864 8.704 1.536 14.848 8.704 14.848 17.408v28.16c3.072 0 6.144-0.512 9.216-0.512 3.072 0 6.144 0 9.216 0.512v-28.16c0-8.704 6.144-16.384 14.848-17.408 81.92-11.776 143.36-82.944 143.36-164.864v-34.304c0-8.704 8.704-16.384 17.408-17.92 8.704-1.536 17.92-2.56 27.136-2.56 111.616 0 202.752 91.136 202.752 202.752v114.688c0.512 111.616-90.624 202.752-202.24 202.752z m-256-268.8c-91.648-20.48-158.72-102.912-158.72-197.12v-15.872c-3.072-0.512-6.144-0.512-9.216-0.512-92.672 0-167.424 75.264-167.424 167.424V306.688c0 92.16 75.264 167.424 167.424 167.424 33.792 0 66.56-10.752 94.72-30.72-4.608-9.216-8.704-18.944-11.264-29.184v-1.024l-1.536-6.144c0-0.512 0-1.024-0.512-2.048-0.512-2.048-0.512-3.584-1.024-5.632 0-0.512 0-1.536-0.512-2.048 0-1.536-0.512-3.584-0.512-5.632v-9.728c0-3.072 0-6.144 0.512-9.216v-2.048c0.512-3.072 0.512-6.144 1.024-8.704v-1.536l1.536-7.68c0-1.024 0.512-1.536 0.512-2.56 0.512-2.56 1.536-5.12 2.048-7.68 0.512-1.024 0.512-1.536 1.024-2.56 0.512-2.048 1.536-3.584 2.048-5.632 0.512-1.024 0.512-2.048 1.024-3.072 1.024-2.048 2.048-4.608 3.072-6.656 0.512-1.024 1.024-2.048 1.536-3.584 1.024-1.536 1.536-3.072 2.56-4.608 1.024-1.536 1.536-2.56 2.56-4.096 1.024-1.536 2.048-3.584 3.072-5.12 0.512-1.024 1.536-2.048 2.048-3.072 1.536-2.048 2.56-3.584 4.096-5.632 0.512-0.512 1.024-1.536 1.536-2.048 1.536-2.048 3.072-3.584 5.12-5.632l1.536-1.536c13.824-14.336 31.232-25.6 50.176-32.256v-18.944z m24.064 50.688c-1.024 0.512-1.536 0.512-2.56 1.024-13.824 3.072-26.112 9.216-36.352 17.408-1.536 1.536-3.584 3.072-5.12 4.096-0.512 0.512-1.024 1.024-2.048 1.536l-3.584 3.584-3.072 3.072c-1.024 1.024-1.536 2.048-2.56 3.072-1.536 1.536-2.56 3.584-4.096 5.12-0.512 0.512-1.024 1.024-1.024 1.536l-4.608 7.68s0 0.512-0.512 0.512c-1.024 2.56-2.56 4.608-3.584 7.168-0.512 0.512-0.512 1.536-1.024 2.048-1.024 2.048-1.536 4.096-2.048 6.144-0.512 1.024-0.512 2.048-1.024 3.072-0.512 2.048-1.024 4.096-1.536 5.632 0 1.024-0.512 2.048-0.512 3.072-0.512 2.048-0.512 4.096-1.024 6.144 0 1.024-0.512 2.048-0.512 3.072-0.512 3.072-0.512 6.144-0.512 9.216 0 3.072 0 6.144 0.512 8.704 0 1.024 0 2.048 0.512 3.072 0 2.048 0.512 3.584 1.024 5.632 0 1.024 0.512 2.048 0.512 3.584 0.512 1.536 1.024 3.584 1.536 5.12 0.512 2.56 1.536 5.12 2.56 7.168 0.512 1.024 0.512 2.048 1.024 2.56 0.512 1.536 1.536 3.584 2.56 5.12 0.512 0.512 0.512 1.024 1.024 2.048 1.024 2.048 2.048 3.584 3.072 5.632 0 0 0 0.512 0.512 0.512 1.024 2.048 2.56 4.096 3.584 5.632v0.512c17.408 25.088 46.592 41.472 79.36 41.472 36.352 0 68.096-19.968 84.48-49.664 0.512-1.536 1.536-2.56 2.048-4.096 0.512-1.024 1.024-2.048 1.536-3.584 0.512-1.536 1.024-2.56 1.536-4.096 0.512-1.536 1.024-2.56 1.536-4.096 0.512-1.024 1.024-2.56 1.024-3.584 0.512-2.56 1.536-5.12 2.048-7.68 0-1.024 0.512-2.048 0.512-3.072 0.512-2.048 0.512-4.096 1.024-5.632 0-1.024 0-2.048 0.512-2.56 0.512-3.072 0.512-5.632 0.512-8.704 0-3.072 0-6.144-0.512-9.216 0-1.024 0-2.048-0.512-3.072-0.512-2.048-0.512-4.096-1.024-6.144 0-1.024-0.512-2.048-0.512-3.072-0.512-2.048-1.024-3.584-1.536-5.632-0.512-1.024-0.512-2.048-1.024-3.072-0.512-2.048-1.536-4.096-2.048-5.632-0.512-1.024-0.512-1.536-1.024-2.56-1.024-2.56-2.048-4.608-3.072-6.656 0-0.512-0.512-0.512-0.512-1.024l-4.608-7.68c-0.512-0.512-1.024-1.536-1.536-2.048-1.024-1.536-2.048-3.072-3.584-4.608-1.024-1.024-2.048-2.048-3.072-3.584-1.024-1.024-1.536-2.048-2.56-2.56l-4.096-4.096-1.536-1.536c-11.776-10.24-26.112-17.92-41.984-22.016-1.024 0-2.048-0.512-2.56-1.024-6.656-1.536-12.8-2.048-19.968-2.048-6.656 1.024-13.312 1.536-19.968 3.072z m399.36-99.328c0-92.672-75.264-167.424-167.424-167.424-3.072 0-6.144 0-9.216 0.512v18.944c0 94.208-67.072 176.64-158.72 197.12v20.992c18.944 6.656 36.352 17.92 50.176 32.256l1.536 1.536c1.536 1.536 3.072 3.584 4.608 5.632 0.512 0.512 1.536 1.536 2.048 2.56 1.536 1.536 2.56 3.584 4.096 5.12 0.512 1.024 1.536 2.048 2.048 3.072l3.072 4.608c1.024 1.536 2.048 3.072 2.56 4.608 1.024 1.536 1.536 2.56 2.048 4.096 0.512 1.024 1.024 2.56 2.048 3.584 1.024 2.048 2.048 4.608 3.072 6.656 0.512 1.024 1.024 2.048 1.024 3.072 0.512 1.536 1.536 3.584 2.048 5.632 0.512 1.024 0.512 2.048 1.024 3.072 1.024 2.56 1.536 5.12 2.048 7.68 0 1.024 0.512 1.536 0.512 2.56 0.512 2.56 1.024 5.12 1.536 7.168 0 0.512 0 1.024 0.512 1.536 0.512 3.072 1.024 6.144 1.024 8.704v2.048c0 3.072 0.512 6.144 0.512 9.216v7.168 2.048c0 2.048-0.512 3.584-0.512 5.632v2.048c0 2.048-0.512 3.584-1.024 5.632 0 0.512 0 1.024-0.512 1.536-0.512 2.048-0.512 4.096-1.024 5.632 0 0.512 0 1.024-0.512 1.024-0.512 2.048-1.024 4.608-1.536 6.656v0.512c-2.048 7.168-5.12 14.336-8.192 20.992 28.16 19.456 60.416 29.696 93.696 29.696 92.672 0 167.424-75.264 167.424-167.424v-115.712z"  horiz-adv-x="1024" />

    
    <glyph glyph-name="erweima1" unicode="&#58889;" d="M91.74 831.935h359.403c36.543-3.563 27.732-66.995 27.732-108.206v-196.197c0-42.645 8.146-94.91-20.499-107.023-18.657-7.884-68.726-2.376-92.866-2.376H174.964c-44.054 0-104.198-10.362-110.96 27.349V804.586c4.927 13.375 13.589 23.068 27.736 27.35z m49.452-80.858v-255.654h259.294V754.646H142.401c-1.41-0.197-1.316-1.88-1.209-3.569z m432.96 80.858h359.401c14.66-5.362 24.733-15.25 27.737-32.105v-349.593c-3.29-14.528-10.982-26.929-25.326-30.912-23.44-6.508-62.399-1.193-90.452-1.193H660.989c-27.828 0-69.069-5.777-91.657 1.193-31.895 9.836-22.913 71.214-22.913 114.152v183.12c0 49.569-11.038 108.412 27.733 115.338z m49.45-80.858v-255.654h259.3V754.646H624.807c-1.403-0.197-1.309-1.88-1.205-3.569z m-364.22-74.914c36.11 6.721 64.506-17.336 65.127-49.937 0.808-43.003-43.733-66.62-78.392-48.757-39.66 20.438-37.051 89.336 13.264 98.694z m482.409 0c85.066 15.67 83.434-117.147 0-103.446-53.092 8.713-54.805 93.354 0 103.446zM448.733-64.644H92.946c-14.772 4.47-24.746 13.657-28.942 28.54V321.816c3.512 10.476 11.62 22.693 24.118 26.16 23.61 6.55 62.172 1.192 90.455 1.192h184.518c27.273 0 66.962 6 91.661-1.192 33.418-9.722 24.12-70.106 24.12-112.963v-189.065c-0.001-46.253 10.104-106.46-30.143-110.591z m-307.54 332.952V12.65h259.293V271.88H142.401c-1.41-0.208-1.316-1.886-1.209-3.57z m820.096 48.75v-99.882c-2.812-33.69-0.402-72.534-1.2-108.207h-256.89V167.23c-24.123 2.783-53.467 0.403-79.594 1.198-2.816-75.313-0.402-155.772-1.21-233.067H575.36c-40.44 7.996-28.942 67.825-28.942 115.344V235.012c0 27.713-5.693 69.266 1.205 91.563 8.23 26.605 43.903 22.593 79.602 22.593h174.87V191.02H882.9c0.799 52.318-1.607 107.81 1.201 158.148 38.888 2.268 74.907 1.708 77.188-32.11z m-695.876-122.47c38.561 4.208 70.432-32.336 55.48-72.544-20.738-55.723-119.873-34.775-101.308 35.678 5.126 19.474 19.955 34.036 45.828 36.866z m524.622-259.232H703.2c0.803 30.528-1.606 64.218 1.21 92.755h85.626v-92.755zM961.29 28.11v-60.647c-3.353-16.905-13.378-27.229-28.943-32.105h-61.508c0.803 30.524-1.606 64.214 1.21 92.75h89.241v0.002z m0 0"  horiz-adv-x="1024" />

    
    <glyph glyph-name="tianqi" unicode="&#58884;" d="M281.583 734.975c3.157-7.773 10.644-12.486 18.546-12.486 2.507 0 5.057 0.474 7.522 1.476 10.24 4.158 15.167 15.83 11.01 26.068L292.128 815.36c-4.158 10.24-15.831 15.168-26.067 11.01-10.24-4.158-15.168-15.83-11.01-26.068l26.532-65.327zM78.551 605.83l64.954-27.433a19.946 19.946 0 0 1 7.776-1.582c7.802 0 15.216 4.591 18.441 12.23 4.3 10.18-0.467 21.918-10.647 26.217l-64.954 27.432c-10.18 4.299-21.92-0.467-26.217-10.648-4.3-10.18 0.467-21.918 10.647-26.217zM157.394 371.955c10.239 4.157 15.167 15.827 11.01 26.066-4.16 10.24-15.83 15.173-26.068 11.01l-65.328-26.533c-10.24-4.158-15.168-15.828-11.01-26.067 3.157-7.773 10.644-12.486 18.546-12.486a19.93 19.93 0 0 1 7.522 1.477l65.328 26.533zM651.36 574.153c2.507 0 5.056 0.474 7.522 1.475l63.406 25.752c10.24 4.158 15.168 15.83 11.01 26.068-4.158 10.24-15.83 15.167-26.068 11.01l-63.406-25.752c-10.239-4.158-15.167-15.83-11.01-26.068 3.157-7.773 10.644-12.485 18.546-12.485zM496.753 721.864a19.946 19.946 0 0 1 7.776-1.582c7.802 0 15.215 4.59 18.44 12.23l27.434 64.955c4.3 10.18-0.467 21.918-10.648 26.217-10.183 4.299-21.92-0.467-26.217-10.648l-27.433-64.955c-4.3-10.18 0.468-21.918 10.648-26.217zM916.675 202.258c-23.939 24.434-54.676 40.053-88.026 45.03C821.645 369.838 722 467.982 598.812 472.707a202.19 202.19 0 0 1 0.762 17.345c0 110.18-89.638 199.816-199.817 199.816S199.94 600.233 199.94 490.053c0-56.262 22.967-108.317 62.912-145.645-33.985-18.2-57.158-54.059-57.158-95.232 0-1.676 0.039-3.355 0.118-5.031-66.42-18.163-114.362-79.391-114.362-149.852 0-85.654 69.745-155.34 155.475-155.34H806.11c40.853 0 79.538 16.08 108.928 45.28 29.591 29.397 45.89 68.352 45.89 109.686 0 40.734-15.715 79.208-44.253 108.339zM239.959 490.054c0 88.113 71.686 159.798 159.798 159.798 88.113 0 159.798-71.686 159.798-159.798 0-6.419-0.395-12.83-1.152-19.176-79.592-10.395-148.918-60.172-184.141-132.333-17.67 12.011-38.672 18.584-60.619 18.584-0.85 0-1.696-0.012-2.542-0.033-44.674 29.764-71.142 78.941-71.142 132.958z m646.876-477.432c-21.841-21.7-50.51-33.65-80.723-33.65H246.927c-63.663 0-115.457 51.733-115.457 115.32 0 57.347 42.757 106.452 99.455 114.225a20.012 20.012 0 0 1 16.724 24.552 68.228 68.228 0 0 0-1.935 16.107c0 34.076 25.219 62.364 57.97 67.198 1.01-0.156 2.025-0.242 3.036-0.242 2.081 0 4.146 0.328 6.119 0.96 0.27 0.002 0.535 0.02 0.805 0.02 20.524 0 39.736-9.135 52.71-25.064a20.007 20.007 0 1 1 34.44 6.14c27.649 80.568 103.49 134.7 188.72 134.7 110.011 0 199.51-89.457 199.51-199.41 0-0.838 0.02-1.657 0.041-2.473 0.014-0.545 0.035-1.088 0.024-1.647-0.224-10.998 8.47-20.114 19.465-20.41 30.166-0.812 58.411-13.135 79.534-34.697 21.166-21.605 32.823-50.134 32.823-80.333 0-30.594-12.102-59.466-34.076-81.296z"  horiz-adv-x="1024" />

    
    </font>
</defs>
</svg>
